<?xml version="1.0" encoding="UTF-8"?><svg xmlns="http://www.w3.org/2000/svg" width="100%" height="100%"><defs><font id="web" horiz-adv-x="1080"><!--



NOTICE: This font software is the valuable property 
of Monotype Imaging and/or its suppliers and its use 
by you is covered under the terms of the Web Font license 
agreement between you and Monotype Imaging. You may 
ONLY use this font software with the licensed web site. 
Except as specifically permitted by the license, you 
may not copy this font software. If you have any questions, 
please contact Monotype Imaging. 

For more information, please visit http://www.ascenderfonts.com/info/webfont-eula.aspx

Licensed to: microsoft.com

Serial number: SH-276
--><font-face font-family="" units-per-em="2048" panose-1="2 11 5 2 4 2 4 2 2 3" ascent="2210" descent="-514" alphabetic="0"/><missing-glyph horiz-adv-x="1322" d="M166 0V1398H1156V0H166ZM314 148H1008V1250H314V148Z"/><glyph unicode="&#13;" horiz-adv-x="199"/><glyph unicode=" " horiz-adv-x="561"/><glyph unicode="!" horiz-adv-x="582" d="M332 403H246L236 1434H342L332 403ZM291 -18Q257 -18 234 5T211 63Q211 98 234 120T291 143Q325 143 349 121T373 63Q373 29 349 6T291 -18Z"/><glyph unicode="&quot;" horiz-adv-x="686" d="M511 985H425V1434H511V985ZM263 985H177V1434H263V985Z"/><glyph unicode="#" horiz-adv-x="1237" d="M1128 946H856L780 600H1065L1047 522H764L678 123H598L684 522H416L330 123H250L336 522H53L72 600H352L428 946H135L154 1024H444L532 1434H612L524 1024H793L881 1434H961L872 1024H1147L1128 946ZM508 946L432 600H700L776 946H508Z"/><glyph unicode="$" horiz-adv-x="1055" d="M567 4V-209H489V0Q301 0 162 80V182Q314 84 489 84V682Q292 795 227 876T162 1071Q162 1207 250 1308T489 1432V1614H567V1434Q719 1434 827 1391V1288Q724 1348 567 1348V741Q751 640 822 556T893 356Q893 216 808 121T567 4ZM489 1346Q382 1329 320 1258T258 1083Q258 995 304 931T489 786V1346ZM567 635V86Q681 106 739 173T797 338Q797 430 749 494T567 635Z"/><glyph unicode="%" horiz-adv-x="1606" d="M414 729Q260 729 171 830T82 1092Q82 1267 176 1364T424 1462Q574 1462 662 1365T750 1094Q750 938 659 834T414 729ZM422 1380Q307 1380 241 1304T174 1090Q174 961 238 885T416 809Q530 809 594 887T659 1096Q659 1237 595 1308T422 1380ZM416 -33H317L1180 1432H1276L416 -33ZM1198 -25Q1045 -25 956 76T866 338Q866 515 962 612T1208 709Q1358 709 1446 611T1534 340Q1534 184 1443 80T1198 -25ZM1206 627Q1092 627 1025 549T958 336Q958 207 1022 131T1200 55Q1315 55 1379 132T1444 342Q1444 483 1380 555T1206 627Z"/><glyph unicode="&amp;" horiz-adv-x="1427" d="M1260 0L1067 188Q866 -25 588 -25Q377 -25 259 83T141 360Q141 636 473 784Q311 971 311 1126Q311 1265 409 1361T664 1458Q807 1458 889 1377T971 1169Q971 1032 888 936T627 758Q777 599 1067 324Q1192 510 1200 758H1296Q1289 491 1130 260Q1301 92 1403 -2L1260 0ZM563 823Q737 900 805 977T874 1157Q874 1256 811 1315T655 1374Q542 1374 475 1302T408 1124Q408 996 563 823ZM1006 250Q674 571 537 719Q238 589 238 367Q238 232 333 146T596 59Q825 59 1006 250Z"/><glyph unicode="'" horiz-adv-x="438" d="M263 985H177V1434H263V985Z"/><glyph unicode="(" horiz-adv-x="578" d="M453 -326Q150 28 150 545Q150 1085 457 1434H555Q242 1074 242 547Q242 50 551 -326H453Z"/><glyph unicode=")" horiz-adv-x="578" d="M125 -326H27Q336 50 336 547Q336 1074 23 1434H121Q428 1083 428 545Q428 26 125 -326Z"/><glyph unicode="*" horiz-adv-x="831" d="M469 1051L668 784L592 733L418 1010L240 733L166 784L365 1051L70 1126L96 1212L385 1110L369 1434H463L449 1110L735 1212L762 1126L469 1051Z"/><glyph unicode="+" horiz-adv-x="1331" d="M709 555V143H625V555H213V639H625V1051H709V639H1120V555H709Z"/><glyph unicode="," horiz-adv-x="455" d="M125 -248H47L197 227H299L125 -248Z"/><glyph unicode="-" horiz-adv-x="815" d="M145 555V645H692V555H145Z"/><glyph unicode="." horiz-adv-x="455" d="M227 -18Q193 -18 170 5T147 63Q147 98 170 120T227 143Q261 143 285 121T309 63Q309 29 285 6T227 -18Z"/><glyph unicode="/" horiz-adv-x="750" d="M63 -238H-29L664 1434H760L63 -238Z"/><glyph unicode="0" horiz-adv-x="1055" d="M516 -25Q318 -25 206 157T94 686Q94 1069 211 1263T547 1458Q961 1458 961 723Q961 357 844 166T516 -25ZM539 1374Q374 1374 282 1205T190 698Q190 390 278 225T528 59Q687 59 775 227T864 709Q864 1374 539 1374Z"/><glyph unicode="1" horiz-adv-x="730" d="M526 1466V0H434V1321Q365 1255 277 1207T83 1122V1206Q146 1227 200 1253T303 1312T399 1382T494 1466H526Z"/><glyph unicode="2" horiz-adv-x="1055" d="M96 0V67Q96 134 107 187T140 286T196 370T274 449T375 530T499 621Q564 668 620 714T719 813T785 929T810 1075Q810 1217 732 1295T511 1374Q415 1374 326 1332T152 1215V1323Q234 1386 329 1422T527 1458Q613 1458 683 1432T802 1358T879 1242T906 1090Q906 991 878 915T800 776T686 661T547 556Q450 487 383 434T274 329T214 224T195 99V84H908V0H96Z"/><glyph unicode="3" horiz-adv-x="1055" d="M115 51V156Q279 59 424 59Q597 59 695 147T793 379Q793 538 681 620T360 702H250V786H348Q540 786 640 867T741 1098Q741 1227 668 1300T455 1374Q320 1374 172 1280V1378Q334 1458 469 1458Q639 1458 738 1366T838 1122Q838 831 559 752V748Q709 733 799 637T889 393Q889 205 759 90T422 -25Q262 -25 115 51Z"/><glyph unicode="4" horiz-adv-x="1087" d="M826 1434V458H1050V375H826V0H734V375H50V465Q146 574 245 699T434 953T601 1205T728 1434H826ZM156 458H734V1270Q661 1144 583 1026T428 804T281 611T156 458Z"/><glyph unicode="5" horiz-adv-x="1055" d="M160 29V135Q298 59 434 59Q610 59 709 156T808 414Q808 764 409 764Q319 764 203 752L246 1434H843V1350H328L295 840Q398 848 443 848Q670 848 787 737T904 426Q904 225 780 100T426 -25Q275 -25 160 29Z"/><glyph unicode="6" horiz-adv-x="1055" d="M889 1423V1325Q787 1374 678 1374Q571 1374 486 1322T341 1174T249 948T217 657H221Q326 897 580 897Q668 897 740 863T863 769T943 629T971 455Q971 351 940 263T851 111T716 11T543 -25Q444 -25 366 17T234 142T152 347T123 629Q123 817 160 970T268 1231T443 1399T680 1458Q798 1458 889 1423ZM559 813Q488 813 428 784T323 706T254 595T229 469Q229 387 252 313T317 182T418 93T551 59Q620 59 679 87T782 166T849 286T874 436Q874 520 853 589T790 708T691 785T559 813Z"/><glyph unicode="7" horiz-adv-x="1022" d="M293 0Q324 185 377 357T500 694T653 1022T828 1350H70V1434H952V1400Q851 1215 763 1044T604 703T479 362T396 0H293Z"/><glyph unicode="8" horiz-adv-x="1055" d="M107 400Q107 457 123 512T173 617T257 705T375 768Q325 792 284 826T214 901T170 991T154 1092Q154 1171 182 1238T261 1354T380 1430T529 1458Q610 1458 679 1430T798 1353T876 1237T904 1092Q904 1039 889 991T845 901T777 826T688 768Q754 744 803 705T885 617T934 513T950 400Q950 300 919 222T833 89T700 6T528 -23Q436 -23 359 5T226 88T139 220T107 400ZM202 390Q202 315 226 254T292 150T394 83T526 59Q597 59 657 82T760 149T828 254T852 390Q852 457 829 517T764 622T661 693T526 720Q457 720 398 696T295 628T227 523T202 390ZM252 1089Q252 1029 273 978T332 888T420 828T528 806Q585 806 636 828T724 888T784 978T806 1089Q806 1150 785 1202T726 1292T638 1352T528 1374Q466 1374 416 1352T329 1291T272 1200T252 1089Z"/><glyph unicode="9" horiz-adv-x="1055" d="M178 12V113Q293 59 389 59Q616 59 735 240T854 776H850Q751 545 498 545Q409 545 337 578T212 669T131 808T102 985Q102 1091 134 1178T225 1327T362 1423T535 1458Q630 1458 707 1418T838 1296T921 1093T950 809Q950 609 914 454T806 193T630 31T387 -25Q280 -25 178 12ZM522 1374Q452 1374 393 1346T290 1269T223 1151T199 1004Q199 917 222 848T288 730T389 655T520 629Q586 629 645 655T747 726T816 830T842 956Q842 1047 819 1124T753 1256T651 1343T522 1374Z"/><glyph unicode=":" horiz-adv-x="455" d="M227 881Q193 881 170 905T147 963Q147 997 170 1019T227 1042Q261 1042 285 1020T309 963Q309 929 285 905T227 881ZM227 -18Q193 -18 170 5T147 63Q147 98 170 120T227 143Q261 143 285 121T309 63Q309 29 285 6T227 -18Z"/><glyph unicode=";" horiz-adv-x="455" d="M236 881Q201 881 179 905T156 963Q156 997 178 1019T236 1042Q270 1042 293 1020T317 963Q317 929 294 905T236 881ZM125 -248H47L197 227H299L125 -248Z"/><glyph unicode="&lt;" horiz-adv-x="1331" d="M250 580V598L1083 1065V971L406 592V588L1083 254V158L250 580Z"/><glyph unicode="=" horiz-adv-x="1331" d="M213 750V834H1120V750H213ZM213 362V446H1120V362H213Z"/><glyph unicode="&gt;" horiz-adv-x="1331" d="M250 158V254L928 588V592L250 971V1065L1083 598V580L250 158Z"/><glyph unicode="?" horiz-adv-x="881" d="M377 398Q367 423 360 463T352 544Q352 591 364 629T399 702T453 768T523 833Q555 862 586 893T641 961T679 1039T694 1133Q694 1188 676 1231T624 1305T545 1352T442 1368Q348 1368 269 1335T119 1245V1352Q190 1406 268 1432T443 1458Q517 1458 580 1437T690 1376T763 1277T790 1143Q790 1086 774 1039T733 952T674 877T607 809Q554 759 521 725T468 662T442 608T434 545Q434 499 442 462T458 398H377ZM412 -18Q378 -18 356 5T333 63Q333 98 355 120T412 143Q447 143 470 121T494 63Q494 29 471 6T412 -18Z"/><glyph unicode="@" horiz-adv-x="1933" d="M1153 426H1149Q1059 188 856 188Q716 188 635 288T553 557Q553 784 667 935T967 1087Q1045 1087 1104 1047T1182 954H1186Q1190 1015 1196 1073H1284L1233 489Q1233 272 1386 272Q1510 272 1590 397T1671 719Q1671 1018 1490 1196T983 1374Q665 1374 465 1156T264 616Q264 289 455 93T975 -104Q1224 -104 1401 -16V-109Q1205 -188 965 -188Q604 -188 386 35T168 616Q168 975 403 1216T993 1458Q1344 1458 1555 1252T1767 729Q1767 492 1660 340T1391 188Q1169 188 1153 426ZM963 1004Q819 1004 734 884T649 565Q649 430 706 351T866 272Q1002 272 1082 411T1163 766Q1163 883 1110 943T963 1004Z"/><glyph unicode="A" horiz-adv-x="1288" d="M1118 0L954 446H332L168 0H59L600 1434H694L1229 0H1118ZM678 1200Q667 1230 660 1259Q653 1284 645 1309H641Q624 1243 608 1202L367 537H920L678 1200Z"/><glyph unicode="B" horiz-adv-x="1114" d="M184 0V1434H561Q730 1434 830 1343T930 1102Q930 977 864 886T678 756V752Q827 738 913 646T999 410Q999 229 882 115T569 0H184ZM283 1343V788H483Q639 788 733 868T827 1085Q827 1343 522 1343H283ZM283 698V90H549Q718 90 807 171T897 401Q897 698 494 698H283Z"/><glyph unicode="C" horiz-adv-x="1272" d="M1137 47Q963 -25 774 -25Q480 -25 295 172T109 688Q109 1037 310 1247T821 1458Q986 1458 1137 1405V1300Q986 1368 819 1368Q549 1368 380 1185T211 698Q211 405 372 236T782 66Q980 66 1137 143V47Z"/><glyph unicode="D" horiz-adv-x="1380" d="M184 0V1434H543Q900 1434 1086 1256T1272 737Q1272 409 1073 205T522 0H184ZM283 1343V90H508Q827 90 998 255T1169 733Q1169 1343 528 1343H283Z"/><glyph unicode="E" horiz-adv-x="1024" d="M184 0V1434H854V1343H283V768H813V678H283V90H887V0H184Z"/><glyph unicode="F" horiz-adv-x="952" d="M283 1343V758H813V668H283V0H184V1434H854V1343H283Z"/><glyph unicode="G" horiz-adv-x="1368" d="M1221 100Q999 -25 764 -25Q471 -25 290 174T109 696Q109 1022 304 1240T825 1458Q1014 1458 1192 1382V1274Q997 1368 811 1368Q540 1368 376 1183T211 711Q211 409 365 238T782 66Q976 66 1122 150V623H784V713H1221V100Z"/><glyph unicode="H" horiz-adv-x="1386" d="M1104 0V688H283V0H184V1434H283V778H1104V1434H1202V0H1104Z"/><glyph unicode="I" horiz-adv-x="467" d="M184 0V1434H283V0H184Z"/><glyph unicode="J" horiz-adv-x="664" d="M487 494Q487 -25 127 -25Q71 -25 18 -10V86Q77 66 129 66Q267 66 328 170T389 496V1434H487V494Z"/><glyph unicode="K" horiz-adv-x="1079" d="M922 0L311 686Q294 705 287 719H283V0H184V1434H283V758H287Q299 779 313 793L893 1434H1022L393 739L1061 0H922Z"/><glyph unicode="L" horiz-adv-x="938" d="M184 0V1434H283V90H858V0H184Z"/><glyph unicode="M" horiz-adv-x="1706" d="M1427 0V1018Q1427 1055 1438 1229H1434Q1403 1148 1382 1104L872 0H840L328 1098Q303 1151 281 1233H276Q283 1137 283 1042V0H184V1434H276L811 279Q816 269 822 252Q828 235 835 218Q845 192 856 160H862L873 192Q874 196 907 287L1434 1434H1522V0H1427Z"/><glyph unicode="N" horiz-adv-x="1452" d="M1198 0L344 1159Q318 1194 298 1229L285 1249H281Q283 1223 283 1186V0H184V1434H260L1108 285Q1136 247 1169 193H1174Q1169 263 1169 313V1434H1268V0H1198Z"/><glyph unicode="O" horiz-adv-x="1559" d="M774 -25Q470 -25 290 177T109 702Q109 1045 294 1251T801 1458Q1091 1458 1270 1260T1450 739Q1450 383 1266 179T774 -25ZM784 1368Q534 1368 373 1187T211 713Q211 417 364 242T772 66Q1038 66 1193 239T1348 723Q1348 1027 1197 1197T784 1368Z"/><glyph unicode="P" horiz-adv-x="1114" d="M283 575V0H184V1434H530Q751 1434 868 1332T985 1032Q985 832 855 704T489 575H283ZM283 1343V666H487Q681 666 782 758T883 1020Q883 1343 512 1343H283Z"/><glyph unicode="Q" horiz-adv-x="1544" d="M774 -25Q470 -25 290 177T109 702Q109 1045 294 1251T801 1458Q1091 1458 1270 1260T1450 739Q1450 383 1266 179Q1209 115 1139 72L1487 -193H1320L1049 25Q927 -25 774 -25ZM784 1368Q534 1368 373 1187T211 713Q211 417 364 242T772 66Q1038 66 1193 239T1348 723Q1348 1027 1197 1197T784 1368Z"/><glyph unicode="R" horiz-adv-x="1137" d="M918 0L727 420Q668 550 609 594T461 639H283V0H184V1434H582Q772 1434 880 1332T989 1061Q989 906 900 802T651 668V664Q736 630 817 457L1030 0H918ZM283 1343V729H530Q694 729 790 815T887 1051Q887 1188 800 1265T551 1343H283Z"/><glyph unicode="S" horiz-adv-x="1018" d="M139 51V164Q293 66 451 66Q619 66 706 135T793 330Q793 440 735 505T481 684Q263 811 205 896T147 1094Q147 1246 265 1352T580 1458Q708 1458 836 1415V1311Q710 1368 567 1368Q421 1368 336 1294T250 1106Q250 996 308 931T561 754Q762 640 828 552T895 348Q895 183 781 79T457 -25Q383 -25 287 -2T139 51Z"/><glyph unicode="T" horiz-adv-x="1047" d="M573 1343V0H475V1343H61V1434H987V1343H573Z"/><glyph unicode="U" horiz-adv-x="1327" d="M1161 573Q1161 -25 651 -25Q166 -25 166 551V1434H264V565Q264 66 670 66Q1063 66 1063 551V1434H1161V573Z"/><glyph unicode="V" horiz-adv-x="1237" d="M639 0H565L41 1434H152L567 279Q593 207 604 143H608Q618 194 649 281L1090 1434H1196L639 0Z"/><glyph unicode="W" horiz-adv-x="1833" d="M1362 0H1280L961 1079Q937 1162 934 1214H930Q927 1170 899 1081L559 0H477L51 1434H162L489 285Q511 207 520 158H524Q530 195 559 285L913 1434H963L1288 285Q1311 205 1319 158H1323Q1328 186 1339 222L1675 1434H1782L1362 0Z"/><glyph unicode="X" horiz-adv-x="1153" d="M961 0L631 547Q600 598 578 647H573Q546 592 516 547L180 0H61L514 723L88 1434H207L528 895Q553 853 580 799H584L637 895L956 1434H1071L641 725L1081 0H961Z"/><glyph unicode="Y" horiz-adv-x="1106" d="M598 545V0H500V543L61 1434H172L506 743Q524 707 551 637H555Q569 674 604 741L954 1434H1061L598 545Z"/><glyph unicode="Z" horiz-adv-x="1167" d="M215 90H1073V0H66V31L934 1343H135V1434H1087V1407L215 90Z"/><glyph unicode="[" horiz-adv-x="578" d="M209 -326V1434H526V1350H301V-242H526V-326H209Z"/><glyph unicode="\" horiz-adv-x="750" d="M668 -238L-29 1434H68L760 -238H668Z"/><glyph unicode="]" horiz-adv-x="578" d="M51 -326V-242H276V1350H51V1434H369V-326H51Z"/><glyph unicode="^" horiz-adv-x="1331" d="M975 702L668 1315H664L356 702H260L645 1458H686L1071 702H975Z"/><glyph unicode="_" horiz-adv-x="850" d="M0 -268V-178H850V-268H0Z"/><glyph unicode="`" horiz-adv-x="508" d="M324 1188L76 1516H180L414 1188H324Z"/><glyph unicode="a" horiz-adv-x="1012" d="M776 0V205H772Q723 100 630 38T422 -25Q276 -25 191 57T106 264Q106 532 461 588L776 635Q776 965 528 965Q359 965 199 829V940Q256 985 353 1017T537 1049Q695 1049 781 951T868 666V0H776ZM494 510Q333 487 268 436T203 268Q203 177 263 118T432 59Q580 59 678 168T776 451V551L494 510Z"/><glyph unicode="b" horiz-adv-x="1147" d="M260 182H256V0H164V1516H256V813H260Q315 926 417 987T643 1049Q838 1049 947 915T1057 549Q1057 292 930 134T600 -25Q370 -25 260 182ZM256 563V434Q256 280 353 170T608 59Q765 59 863 193T961 547Q961 739 871 852T631 965Q452 965 354 845T256 563Z"/><glyph unicode="c" horiz-adv-x="909" d="M827 45Q713 -25 555 -25Q346 -25 218 118T90 494Q90 738 234 893T604 1049Q721 1049 831 1001V897Q721 965 590 965Q410 965 298 836T186 500Q186 301 288 180T559 59Q713 59 827 141V45Z"/><glyph unicode="d" horiz-adv-x="1147" d="M891 0V186H887Q837 89 739 32T518 -25Q329 -25 210 113T90 494Q90 742 220 895T559 1049Q789 1049 887 860H891V1516H983V0H891ZM891 623Q891 766 801 865T557 965Q396 965 291 842T186 502Q186 290 280 175T524 59Q699 59 795 167T891 432V623Z"/><glyph unicode="e" horiz-adv-x="1034" d="M186 508Q186 297 283 178T551 59Q723 59 887 186V88Q728 -25 532 -25Q334 -25 212 117T90 518Q90 742 217 895T549 1049Q740 1049 842 915T944 549V508H186ZM848 592Q842 769 763 867T545 965Q401 965 307 869T190 592H848Z"/><glyph unicode="f" horiz-adv-x="565" d="M612 1419Q575 1448 500 1448Q311 1448 311 1194V1024H582V940H311V0H219V940H35V1024H219V1202Q219 1364 300 1448T504 1532Q569 1532 612 1513V1419Z"/><glyph unicode="g" horiz-adv-x="1147" d="M983 76Q983 -213 857 -347T465 -481Q317 -481 160 -403V-307Q322 -397 467 -397Q891 -397 891 51V184H887Q766 -25 518 -25Q329 -25 210 112T90 494Q90 739 219 894T559 1049Q785 1049 887 862H891V1024H983V76ZM891 631Q891 767 800 866T561 965Q392 965 289 838T186 502Q186 292 280 176T530 59Q695 59 793 166T891 428V631Z"/><glyph unicode="h" horiz-adv-x="1096" d="M860 0V614Q860 796 794 880T588 965Q456 965 356 862T256 567V0H164V1516H256V840H260Q381 1049 612 1049Q778 1049 865 942T952 635V0H860Z"/><glyph unicode="i" horiz-adv-x="420" d="M209 1282Q179 1282 156 1304T133 1360Q133 1393 156 1413T209 1434Q240 1434 263 1414T287 1360Q287 1328 264 1305T209 1282ZM164 0V1024H256V0H164Z"/><glyph unicode="j" horiz-adv-x="420" d="M209 1282Q179 1282 156 1304T133 1360Q133 1393 156 1413T209 1434Q240 1434 263 1414T287 1360Q287 1328 264 1305T209 1282ZM256 29Q256 -481 -106 -481Q-178 -481 -252 -446V-350Q-172 -397 -96 -397Q164 -397 164 12V1024H256V29Z"/><glyph unicode="k" horiz-adv-x="909" d="M750 0L260 506H256V0H164V1516H256V539H260L725 1024H844L358 528L883 0H750Z"/><glyph unicode="l" horiz-adv-x="420" d="M164 0V1516H256V0H164Z"/><glyph unicode="m" horiz-adv-x="1683" d="M1448 0V616Q1448 809 1388 887T1196 965Q1075 965 987 861T899 600V0H807V623Q807 965 547 965Q422 965 339 861T256 590V0H164V1024H256V854H260Q367 1049 573 1049Q685 1049 764 985T872 815Q920 926 1009 987T1204 1049Q1540 1049 1540 633V0H1448Z"/><glyph unicode="n" horiz-adv-x="1096" d="M860 0V596Q860 965 594 965Q446 965 351 857T256 588V0H164V1024H256V838H260Q372 1049 610 1049Q776 1049 864 939T952 623V0H860Z"/><glyph unicode="o" horiz-adv-x="1149" d="M575 -25Q351 -25 221 122T90 506Q90 761 226 905T586 1049Q805 1049 932 906T1059 510Q1059 271 930 123T575 -25ZM582 965Q401 965 294 843T186 504Q186 303 291 181T578 59Q763 59 863 179T963 512Q963 731 864 848T582 965Z"/><glyph unicode="p" horiz-adv-x="1147" d="M260 182H256V-471H164V1024H256V813H260Q315 926 417 987T643 1049Q838 1049 947 915T1057 549Q1057 292 932 134T600 -25Q370 -25 260 182ZM256 563V434Q256 280 353 170T608 59Q765 59 863 193T961 547Q961 739 871 852T631 965Q452 965 354 845T256 563Z"/><glyph unicode="q" horiz-adv-x="1147" d="M891 -471V188H887Q773 -25 516 -25Q324 -25 207 116T90 496Q90 751 223 900T561 1049Q790 1049 887 858H891V1024H983V-471H891ZM891 614Q891 767 802 866T555 965Q396 965 291 843T186 500Q186 294 279 177T522 59Q701 59 796 169T891 438V614Z"/><glyph unicode="r" horiz-adv-x="676" d="M647 928Q601 961 539 961Q418 961 336 836T254 481V0H164V1024H254V797H258Q293 914 369 979T545 1044Q602 1044 647 1026V928Z"/><glyph unicode="s" horiz-adv-x="795" d="M111 45V156Q163 111 237 85T365 59Q606 59 606 256Q606 324 553 372T381 471Q234 535 175 603T115 770Q115 895 210 972T446 1049Q578 1049 672 995V891Q558 965 436 965Q335 965 273 913T211 776Q211 703 250 658T422 553Q582 481 642 420T702 256Q702 134 611 55T358 -25Q210 -25 111 45Z"/><glyph unicode="t" horiz-adv-x="608" d="M569 14Q497 -20 434 -20Q207 -20 207 252V940H23V1024H207V1290Q229 1298 253 1306Q277 1313 299 1321V1024H569V940H299V264Q299 158 332 111T446 63Q503 63 569 100V14Z"/><glyph unicode="u" horiz-adv-x="1096" d="M840 0V186H836Q729 -25 506 -25Q143 -25 143 432V1024H236V455Q236 247 304 153T520 59Q663 59 751 164T840 444V1024H932V0H840Z"/><glyph unicode="v" horiz-adv-x="928" d="M500 0H416L20 1024H123L428 209Q450 150 459 102H463Q476 165 492 205L807 1024H907L500 0Z"/><glyph unicode="w" horiz-adv-x="1386" d="M1032 0H946L723 772Q714 804 707 858H702Q700 835 682 774L432 0H346L37 1024H139L377 207Q386 175 391 121H399Q401 150 418 207L678 1024H741L973 207Q981 178 987 121H995Q995 150 1012 207L1255 1024H1350L1032 0Z"/><glyph unicode="x" horiz-adv-x="862" d="M481 502L815 0H698L428 432H424L388 375Q381 363 371 348L145 0H33L375 500L39 1024H147L375 657Q419 586 428 569H432L483 653L721 1024H829L481 502Z"/><glyph unicode="y" horiz-adv-x="928" d="M414 -209Q358 -347 290 -414T115 -481Q70 -481 35 -467V-375Q71 -389 119 -389Q242 -389 313 -219L408 8L20 1024H123L432 190Q442 163 446 149Q450 130 455 115H459L483 184L813 1024H913L414 -209Z"/><glyph unicode="z" horiz-adv-x="950" d="M207 84H868V0H57V35L737 940H106V1024H893V999L207 84Z"/><glyph unicode="{" horiz-adv-x="578" d="M506 -326Q379 -321 315 -254T250 -35V262Q250 499 94 522V586Q250 608 250 829V1143Q250 1295 314 1362T506 1434V1350Q418 1345 382 1293T346 1114V821Q346 599 201 555V551Q346 505 346 270V-6Q346 -133 382 -185T506 -242V-326Z"/><glyph unicode="|" horiz-adv-x="463" d="M184 -481V1567H279V-481H184Z"/><glyph unicode="}" horiz-adv-x="578" d="M483 522Q328 499 328 262V-35Q328 -188 264 -254T72 -326V-242Q154 -237 192 -189T231 -6V270Q231 505 377 551V555Q231 600 231 821V1114Q231 1249 193 1297T72 1350V1434Q199 1429 263 1363T328 1143V829Q328 608 483 586V522Z"/><glyph unicode="~" horiz-adv-x="1331" d="M1087 711Q1080 597 1019 533T854 469Q759 469 653 553Q548 637 477 637Q336 637 324 479H246Q252 592 314 656T479 721Q574 721 674 641Q744 586 779 569T858 551Q991 551 1010 711H1087Z"/><glyph unicode="¤" horiz-adv-x="1139" d="M946 293L811 428Q706 342 569 342Q429 342 328 428L193 293L133 354L270 485Q186 601 186 725Q186 865 270 965L133 1098L193 1159L328 1024Q441 1108 569 1108Q706 1108 809 1024L946 1159L1006 1098L868 965Q952 864 952 725Q952 593 868 485L1006 354L946 293ZM571 1024Q443 1024 357 936T270 727Q270 606 359 516T569 426Q691 426 779 515T868 727Q868 853 778 938T571 1024Z"/><glyph unicode="¦" horiz-adv-x="463" d="M184 715V1567H279V715H184ZM184 -481V371H279V-481H184Z"/><glyph unicode="§" horiz-adv-x="918" d="M618 403Q713 332 713 203Q713 89 624 12T393 -66Q286 -66 176 -16V82Q294 18 395 18Q504 18 560 68T616 201Q616 255 586 303T445 404Q268 488 217 564T166 737Q166 909 328 993Q205 1076 205 1212Q205 1337 287 1414T514 1491Q624 1491 709 1454V1358Q623 1407 512 1407Q301 1407 301 1219Q301 1139 356 1087T569 965Q772 871 772 686Q772 524 618 403ZM406 946Q262 881 262 743Q262 645 321 588T545 457Q614 508 645 557T676 686Q676 763 628 816T406 946Z"/><glyph unicode="¨" horiz-adv-x="817" d="M575 1188Q548 1188 526 1207T504 1260Q504 1291 525 1310T573 1329Q602 1329 625 1310T649 1260Q649 1229 628 1209T575 1188ZM242 1188Q214 1188 192 1207T170 1260Q170 1291 192 1310T240 1329Q269 1329 292 1310T315 1260Q315 1229 294 1209T242 1188Z"/><glyph unicode="©" horiz-adv-x="1804" d="M903 -25Q592 -25 374 191T156 715Q156 1025 375 1241T901 1458Q1209 1458 1429 1241T1649 717Q1649 409 1431 192T903 -25ZM901 1382Q629 1382 433 1186T236 715Q236 442 431 247T901 51Q1178 51 1373 247T1569 715Q1569 990 1373 1186T901 1382ZM1182 270Q1059 199 932 199Q723 199 580 340T436 690Q436 936 581 1080T948 1225Q1075 1225 1178 1171V1085Q1072 1143 932 1143Q762 1143 645 1026T528 711Q528 519 649 401T942 283Q1072 283 1182 350V270Z"/><glyph unicode="«" horiz-adv-x="952" d="M717 201L440 537L717 881H831L549 537L829 201H717ZM399 201L123 537L399 881H512L231 537L512 201H399Z"/><glyph unicode="¬" horiz-adv-x="1331" d="M1034 147V555H213V639H1120V147H1034Z"/><glyph unicode="­" horiz-adv-x="815" d="M145 555V645H692V555H145Z"/><glyph unicode="®" horiz-adv-x="1804" d="M897 255Q647 255 472 430T296 853Q296 1104 472 1279T896 1454Q1144 1454 1321 1279T1498 856Q1498 606 1323 431T897 255ZM893 1386Q677 1386 523 1230T368 853Q368 635 521 479T893 323Q1113 323 1269 479T1426 853Q1426 1073 1269 1229T893 1386ZM1087 482L995 679Q955 765 918 794T833 824H756V482H674V1254H885Q1013 1254 1082 1199T1151 1051Q1151 874 949 837V834Q1017 820 1077 694L1179 482H1087ZM756 1191V888H895Q973 888 1020 928T1067 1038Q1067 1191 876 1191H756Z"/><glyph unicode="°" horiz-adv-x="791" d="M397 930Q293 930 218 1005T143 1184Q143 1286 216 1360T393 1434Q498 1434 572 1361T647 1184Q647 1079 574 1005T397 930ZM397 1358Q326 1358 276 1307T225 1184Q225 1111 274 1059T393 1006Q463 1006 513 1058T563 1184Q563 1258 515 1308T397 1358Z"/><glyph unicode="±" horiz-adv-x="1331" d="M709 633V221H625V633H213V717H625V1128H709V717H1120V633H709ZM213 0V84H1120V0H213Z"/><glyph unicode="´" horiz-adv-x="508" d="M227 1188H137L371 1516H475L227 1188Z"/><glyph unicode="µ" horiz-adv-x="1116" d="M860 0V186H856Q751 -25 526 -25Q350 -25 264 98H256V-391H164V1024H256V455Q256 245 325 152T541 59Q685 59 772 164T860 444V1024H952V0H860Z"/><glyph unicode="¶" horiz-adv-x="971" d="M733 1348V0H647V1348H449V0H362V903Q257 903 185 979T113 1167Q113 1288 188 1361T369 1434H864V1348H733Z"/><glyph unicode="»" horiz-adv-x="952" d="M553 201H440L723 545L440 881H553L831 545L553 201ZM238 201H121L406 545L121 881H236L512 545L238 201Z"/><glyph unicode="ı" horiz-adv-x="420" d="M164 0V1024H256V0H164Z"/><glyph unicode="Ё" horiz-adv-x="1024" d="M184 0V1434H854V1343H283V768H813V678H283V90H887V0H184ZM714 1536Q687 1536 665 1555T643 1608Q643 1639 664 1658T712 1677Q741 1677 764 1658T788 1608Q788 1577 767 1557T714 1536ZM381 1536Q353 1536 331 1555T309 1608Q309 1639 331 1658T379 1677Q408 1677 431 1658T454 1608Q454 1577 433 1557T381 1536Z"/><glyph unicode="Ђ" horiz-adv-x="1409" d="M1286 375Q1286 295 1264 223T1195 95T1078 8T909 -25Q864 -25 822 -17T750 0V100Q781 88 824 78T909 68Q981 68 1032 93T1117 161T1165 259T1180 373Q1180 447 1157 509T1087 615T973 684T813 709H532V0H434V1343H61V1434H987V1343H532V799H827Q926 799 1010 774T1156 696T1251 563T1286 375Z"/><glyph unicode="Ѓ" horiz-adv-x="889" d="M283 1343V0H184V1434H858V1343H283ZM524 1556H434L668 1884H772L524 1556Z"/><glyph unicode="Є" horiz-adv-x="1272" d="M774 -25Q626 -25 504 27T294 172T158 397T109 688Q109 874 166 1017T320 1259T546 1407T821 1458Q932 1458 1007 1441T1137 1405V1300Q1075 1328 999 1348T819 1368Q696 1368 590 1328T404 1210T273 1020T213 764H915V672H211Q215 516 264 402T393 213T574 102T782 66Q895 66 984 88T1137 143V47Q1110 36 1075 24T995 0T895 -18T774 -25Z"/><glyph unicode="Ѕ" horiz-adv-x="1018" d="M139 51V164Q293 66 451 66Q619 66 706 135T793 330Q793 440 735 505T481 684Q263 811 205 896T147 1094Q147 1246 265 1352T580 1458Q708 1458 836 1415V1311Q710 1368 567 1368Q421 1368 336 1294T250 1106Q250 996 308 931T561 754Q762 640 828 552T895 348Q895 183 781 79T457 -25Q383 -25 287 -2T139 51Z"/><glyph unicode="І" horiz-adv-x="467" d="M184 0V1434H283V0H184Z"/><glyph unicode="Ї" horiz-adv-x="467" d="M184 0V1434H283V0H184ZM397 1536Q370 1536 348 1555T326 1608Q326 1639 347 1658T395 1677Q424 1677 447 1658T471 1608Q471 1577 450 1557T397 1536ZM64 1536Q36 1536 14 1555T-8 1608Q-8 1639 14 1658T62 1677Q91 1677 114 1658T137 1608Q137 1577 116 1557T64 1536Z"/><glyph unicode="Ј" horiz-adv-x="664" d="M487 494Q487 -25 127 -25Q71 -25 18 -10V86Q77 66 129 66Q267 66 328 170T389 496V1434H487V494Z"/><glyph unicode="Љ" horiz-adv-x="1995" d="M1042 0V1341H588Q571 1208 551 1066T510 792T470 547T434 360Q417 282 393 214T333 94T247 12T127 -18Q95 -18 72 -14T31 -4V96Q71 76 123 76Q168 76 202 99T261 165T306 269T343 408Q354 456 366 523T393 671T422 845T451 1036T480 1235T506 1434H1141V797H1466Q1551 797 1624 776T1752 708T1837 590T1868 414Q1868 329 1840 254T1758 123T1623 33T1438 0H1042ZM1765 406Q1765 487 1742 544T1674 637T1563 690T1411 707H1141V90H1417Q1509 90 1575 114T1683 180T1745 280T1765 406Z"/><glyph unicode="Њ" horiz-adv-x="2056" d="M1929 414Q1929 329 1901 254T1819 123T1684 33T1499 0H1104V707H283V0H184V1434H283V797H1104V1434H1202V797H1528Q1612 797 1685 776T1813 708T1898 590T1929 414ZM1827 406Q1827 487 1804 544T1736 637T1625 690T1473 707H1202V90H1479Q1571 90 1637 114T1745 180T1807 280T1827 406Z"/><glyph unicode="Ћ" horiz-adv-x="1421" d="M1190 0V383Q1190 464 1173 528T1117 637T1018 705T870 729H573V0H475V1343H61V1434H987V1343H573V819H874Q971 819 1048 795T1178 719T1259 585T1288 387V0H1190Z"/><glyph unicode="Ќ" horiz-adv-x="1079" d="M922 0L311 686Q294 705 287 719H283V0H184V1434H283V758H287Q299 779 313 793L893 1434H1022L393 739L1061 0H922ZM598 1556H508L742 1884H846L598 1556Z"/><glyph unicode="Ў" horiz-adv-x="1098" d="M631 377Q593 288 552 214T462 87T354 5T219 -25Q176 -25 139 -17T75 4V111Q107 92 147 80T219 68Q277 68 320 90T400 154T469 255T535 387L61 1434H172L530 623Q536 611 543 595T557 561T572 525T586 492H590Q602 526 616 556T639 610L983 1434H1087L631 377ZM575 1586Q633 1586 679 1603T759 1649T812 1716T837 1795H935Q925 1741 898 1690T825 1598T717 1534T574 1510Q494 1510 434 1534T333 1598T268 1689T233 1795H331Q336 1754 353 1716T400 1649T473 1603T573 1586H575Z"/><glyph unicode="Џ" horiz-adv-x="1386" d="M738 0V-384H642V0H184V1434H283V90H1104V1434H1202V0H738Z"/><glyph unicode="А" horiz-adv-x="1288" d="M1118 0L954 446H332L168 0H59L600 1434H694L1229 0H1118ZM678 1200Q667 1230 660 1259Q653 1284 645 1309H641Q624 1243 608 1202L367 537H920L678 1200Z"/><glyph unicode="Б" horiz-adv-x="1102" d="M1010 414Q1010 329 982 254T900 123T765 33T580 0H184V1434H905V1343H283V797H608Q693 797 766 776T894 708T979 590T1010 414ZM907 406Q907 487 884 544T816 637T705 690T553 707H283V90H559Q651 90 717 114T825 180T887 280T907 406Z"/><glyph unicode="В" horiz-adv-x="1114" d="M184 0V1434H561Q730 1434 830 1343T930 1102Q930 977 864 886T678 756V752Q827 738 913 646T999 410Q999 229 882 115T569 0H184ZM283 1343V788H483Q639 788 733 868T827 1085Q827 1343 522 1343H283ZM283 698V90H549Q718 90 807 171T897 401Q897 698 494 698H283Z"/><glyph unicode="Г" horiz-adv-x="889" d="M283 1343V0H184V1434H858V1343H283Z"/><glyph unicode="Д" horiz-adv-x="1351" d="M1235 -384V0H120V-384H20V90H136Q210 234 277 402T395 746T477 1098T512 1434H1130V90H1331V-384H1235ZM1032 1343H604Q601 1259 586 1161T547 955T491 735T420 511T337 293T244 90H1032V1343Z"/><glyph unicode="Е" horiz-adv-x="1024" d="M184 0V1434H854V1343H283V768H813V678H283V90H887V0H184Z"/><glyph unicode="Ж" horiz-adv-x="1692" d="M1534 0L924 686Q919 691 912 699T899 719H895V0H797V719H793Q786 708 780 700T768 686L158 0H18L686 739L57 1434H186L766 793Q771 788 779 778T793 758H797V1434H895V758H899Q904 767 912 777T926 793L1505 1434H1634L1006 739L1673 0H1534Z"/><glyph unicode="З" horiz-adv-x="1104" d="M991 393Q991 312 960 237T866 103T711 10T496 -25Q377 -25 283 2T123 72V178Q164 147 211 125T307 88T404 66T498 59Q597 59 671 85T795 155T870 257T895 379Q895 462 865 523T778 623T639 682T453 702H324V786H422Q517 786 593 807T724 870T807 969T836 1102Q836 1159 817 1209T760 1295T665 1353T532 1374Q440 1374 358 1346T211 1270V1368Q244 1386 279 1402T355 1430T442 1450T541 1458Q635 1458 708 1432T831 1361T906 1253T932 1118Q932 979 856 885T637 754V750Q726 744 792 711T903 629T969 518T991 393Z"/><glyph unicode="И" horiz-adv-x="1452" d="M1169 0V1122Q1169 1136 1169 1152T1169 1186T1169 1219T1171 1249H1167Q1162 1241 1155 1229T1139 1204T1122 1179T1108 1159L254 0H184V1434H283V313Q283 289 282 255T279 193H283Q294 211 312 238T344 285L1192 1434H1268V0H1169Z"/><glyph unicode="Й" horiz-adv-x="1452" d="M1169 0V1122Q1169 1136 1169 1152T1169 1186T1169 1219T1171 1249H1167Q1162 1241 1155 1229T1139 1204T1122 1179T1108 1159L254 0H184V1434H283V313Q283 289 282 255T279 193H283Q294 211 312 238T344 285L1192 1434H1268V0H1169ZM724 1586Q782 1586 828 1603T908 1649T961 1716T986 1795H1084Q1074 1741 1047 1690T974 1598T866 1534T723 1510Q643 1510 583 1534T482 1598T417 1689T382 1795H480Q485 1754 502 1716T549 1649T622 1603T722 1586H724Z"/><glyph unicode="К" horiz-adv-x="1079" d="M922 0L311 686Q294 705 287 719H283V0H184V1434H283V758H287Q299 779 313 793L893 1434H1022L393 739L1061 0H922Z"/><glyph unicode="Л" horiz-adv-x="1325" d="M1042 0V1341H588Q571 1208 551 1066T510 792T470 547T434 360Q417 282 393 214T333 94T247 12T127 -18Q95 -18 72 -14T31 -4V96Q71 76 123 76Q168 76 202 99T261 165T306 269T343 408Q354 456 366 523T393 671T422 845T451 1036T480 1235T506 1434H1141V0H1042Z"/><glyph unicode="М" horiz-adv-x="1706" d="M1427 0V1018Q1427 1055 1438 1229H1434Q1403 1148 1382 1104L872 0H840L328 1098Q303 1151 281 1233H276Q283 1137 283 1042V0H184V1434H276L811 279Q816 269 822 252Q828 235 835 218Q845 192 856 160H862L873 192Q874 196 907 287L1434 1434H1522V0H1427Z"/><glyph unicode="Н" horiz-adv-x="1386" d="M1104 0V688H283V0H184V1434H283V778H1104V1434H1202V0H1104Z"/><glyph unicode="О" horiz-adv-x="1559" d="M774 -25Q470 -25 290 177T109 702Q109 1045 294 1251T801 1458Q1091 1458 1270 1260T1450 739Q1450 383 1266 179T774 -25ZM784 1368Q534 1368 373 1187T211 713Q211 417 364 242T772 66Q1038 66 1193 239T1348 723Q1348 1027 1197 1197T784 1368Z"/><glyph unicode="П" horiz-adv-x="1386" d="M1104 0V1343H283V0H184V1434H1202V0H1104Z"/><glyph unicode="Р" horiz-adv-x="1114" d="M283 575V0H184V1434H530Q751 1434 868 1332T985 1032Q985 832 855 704T489 575H283ZM283 1343V666H487Q681 666 782 758T883 1020Q883 1343 512 1343H283Z"/><glyph unicode="С" horiz-adv-x="1272" d="M1137 47Q963 -25 774 -25Q480 -25 295 172T109 688Q109 1037 310 1247T821 1458Q986 1458 1137 1405V1300Q986 1368 819 1368Q549 1368 380 1185T211 698Q211 405 372 236T782 66Q980 66 1137 143V47Z"/><glyph unicode="Т" horiz-adv-x="1047" d="M573 1343V0H475V1343H61V1434H987V1343H573Z"/><glyph unicode="У" horiz-adv-x="1098" d="M631 377Q593 288 552 214T462 87T354 5T219 -25Q176 -25 139 -17T75 4V111Q107 92 147 80T219 68Q277 68 320 90T400 154T469 255T535 387L61 1434H172L530 623Q536 611 543 595T557 561T572 525T586 492H590Q602 526 616 556T639 610L983 1434H1087L631 377Z"/><glyph unicode="Ф" horiz-adv-x="1442" d="M1339 756Q1339 642 1301 540T1194 362T1028 242T811 197H770V-20H672V197H631Q512 197 415 240T248 360T140 538T102 756Q102 866 139 963T246 1134T413 1249T633 1292H672V1475H770V1292H809Q930 1292 1028 1251T1195 1137T1301 967T1339 756ZM1235 754Q1235 855 1204 938T1116 1079T981 1170T809 1202H770V287H811Q903 287 981 320T1115 414T1203 561T1235 754ZM672 1202H633Q540 1202 462 1169T327 1077T239 936T207 754Q207 646 238 560T326 413T461 320T631 287H672V1202Z"/><glyph unicode="Х" horiz-adv-x="1153" d="M961 0L631 547Q600 598 578 647H573Q546 592 516 547L180 0H61L514 723L88 1434H207L528 895Q553 853 580 799H584L637 895L956 1434H1071L641 725L1081 0H961Z"/><glyph unicode="Ц" horiz-adv-x="1436" d="M1288 -384V0H184V1434H283V90H1104V1434H1202V90H1384V-384H1288Z"/><glyph unicode="Ч" horiz-adv-x="1255" d="M973 0V649Q860 605 748 573T520 541Q426 541 359 566T249 638T185 749T164 891V1434H262V905Q262 774 329 703T530 631Q633 631 746 660T973 735V1434H1071V0H973Z"/><glyph unicode="Ш" horiz-adv-x="1776" d="M184 0V1434H283V90H836V1434H936V90H1491V1434H1591V0H184Z"/><glyph unicode="Щ" horiz-adv-x="1825" d="M1678 -384V0H184V1434H283V90H836V1434H936V90H1491V1434H1591V90H1774V-384H1678Z"/><glyph unicode="Ъ" horiz-adv-x="1423" d="M1300 414Q1300 329 1272 254T1190 123T1055 33T870 0H475V1343H61V1434H573V797H899Q983 797 1056 776T1184 708T1269 590T1300 414ZM1198 406Q1198 487 1175 544T1107 637T996 690T844 707H573V90H850Q942 90 1008 114T1116 180T1178 280T1198 406Z"/><glyph unicode="Ы" horiz-adv-x="1544" d="M1262 0V1434H1360V0H1262ZM1010 414Q1010 329 982 254T900 123T765 33T580 0H184V1434H283V797H608Q693 797 766 776T894 708T979 590T1010 414ZM907 406Q907 487 884 544T816 637T705 690T553 707H283V90H559Q651 90 717 114T825 180T887 280T907 406Z"/><glyph unicode="Ь" horiz-adv-x="1135" d="M1010 414Q1010 329 982 254T900 123T765 33T580 0H184V1434H283V797H608Q693 797 766 776T894 708T979 590T1010 414ZM907 406Q907 487 884 544T816 637T705 690T553 707H283V90H559Q651 90 717 114T825 180T887 280T907 406Z"/><glyph unicode="Э" horiz-adv-x="1262" d="M1153 711Q1153 552 1103 417T962 184T748 31T475 -25Q409 -25 356 -18T261 -1T186 22T125 45V143Q188 111 278 89T481 66Q588 66 689 102T869 213T997 402T1051 672H347V764H1049Q1040 894 997 1004T877 1196T692 1322T446 1368Q343 1368 265 1348T125 1300V1397Q152 1406 186 1416T260 1436T349 1452T453 1458Q598 1458 725 1411T948 1270T1098 1037T1153 711Z"/><glyph unicode="Ю" horiz-adv-x="1989" d="M1880 739Q1880 548 1831 405T1696 167T1493 23T1237 -25Q1082 -25 964 31T764 186T642 417T600 700H283V0H184V1434H283V791H604Q616 937 664 1059T795 1270T995 1408T1262 1458Q1404 1458 1518 1405T1712 1256T1836 1029T1880 739ZM1778 723Q1778 883 1739 1003T1628 1205T1459 1327T1243 1368Q1127 1368 1028 1322T857 1191T743 985T702 713Q702 564 740 444T847 240T1015 111T1233 66Q1353 66 1453 107T1625 231T1737 437T1778 723Z"/><glyph unicode="Я" horiz-adv-x="1137" d="M854 0V639H645Q588 639 547 623T473 578T416 507T367 416L178 0H66L277 453Q299 499 321 533T367 592T415 634T463 662V666Q399 676 340 704T234 778T160 891T132 1042Q132 1083 143 1128T176 1216T234 1299T319 1369T432 1416T575 1434H952V0H854ZM854 1343H586Q487 1343 420 1316T312 1245T253 1148T235 1042Q235 955 267 896T350 799T468 746T604 729H854V1343Z"/><glyph unicode="а" horiz-adv-x="1012" d="M776 0V205H772Q723 100 630 38T422 -25Q276 -25 191 57T106 264Q106 532 461 588L776 635Q776 965 528 965Q359 965 199 829V940Q256 985 353 1017T537 1049Q695 1049 781 951T868 666V0H776ZM494 510Q333 487 268 436T203 268Q203 177 263 118T432 59Q580 59 678 168T776 451V551L494 510Z"/><glyph unicode="б" horiz-adv-x="1126" d="M1036 489Q1036 430 1026 369T992 251T934 143T849 56T735 -3T590 -25Q478 -25 393 18T250 143T163 343T133 610Q133 784 154 913T213 1134T305 1284T422 1374Q462 1394 509 1408T606 1434T704 1454T795 1470Q830 1477 870 1489T938 1520V1423Q916 1409 880 1397T797 1376Q753 1369 705 1361T610 1342T521 1318T446 1286Q358 1234 304 1111T238 782H242Q264 825 300 864T384 934T489 981T612 999Q723 999 803 959T934 848T1011 686T1036 489ZM934 477Q934 577 913 657T850 793T743 880T594 911Q534 911 481 892T381 839T299 762T238 668Q238 651 237 622T236 563Q236 463 256 372T320 212T432 101T596 59Q680 59 743 92T849 183T913 317T934 477Z"/><glyph unicode="в" horiz-adv-x="981" d="M889 293Q889 228 867 175T803 82T706 22T582 0H164V1024H553Q630 1024 685 1005T777 953T830 875T848 778Q848 731 835 691T797 618T737 563T657 532Q714 526 757 506T830 454T874 381T889 293ZM752 764Q752 799 742 831T706 887T641 925T541 940H256V569H516Q584 569 629 585T702 629T740 692T752 764ZM793 285Q793 326 780 362T736 426T655 469T530 485H256V84H563Q620 84 663 98T735 139T778 203T793 285Z"/><glyph unicode="г" horiz-adv-x="694" d="M256 940V0H164V1024H664V940H256Z"/><glyph unicode="д" horiz-adv-x="1075" d="M946 -270V0H129V-270H45V84H135Q202 181 253 293T340 526T394 773T416 1024H872V84H1030V-270H946ZM780 940H500Q492 833 473 722T422 501T344 286T238 84H780V940Z"/><glyph unicode="е" horiz-adv-x="1034" d="M186 508Q186 297 283 178T551 59Q723 59 887 186V88Q728 -25 532 -25Q334 -25 212 117T90 518Q90 742 217 895T549 1049Q740 1049 842 915T944 549V508H186ZM848 592Q842 769 763 867T545 965Q401 965 307 869T190 592H848Z"/><glyph unicode="ж" horiz-adv-x="1362" d="M1212 0L731 502H727V0H635V502H631L150 0H20L532 524L37 1024H156L631 535H635V1024H727V535H731L1206 1024H1325L829 524L1341 0H1212Z"/><glyph unicode="з" horiz-adv-x="936" d="M844 285Q844 226 822 170T748 71T614 1T408 -25Q367 -25 322 -20T234 -6T152 15T86 43V139Q121 120 161 105T244 80T329 65T410 59Q510 59 575 77T679 124T733 193T748 274Q748 335 725 376T658 442T552 477T412 487H272V571H399Q549 571 622 620T696 774Q696 816 680 851T631 911T547 951T426 965Q342 965 259 943T106 889V979Q135 991 172 1003T251 1026T341 1042T438 1049Q535 1049 602 1027T712 967T774 883T793 786Q793 687 738 622T580 539V535Q643 532 692 512T775 458T826 381T844 285Z"/><glyph unicode="и" horiz-adv-x="1128" d="M872 0V856Q864 845 857 834T844 817L229 0H164V1024H256V176Q262 187 268 197T281 215L891 1024H965V0H872Z"/><glyph unicode="й" horiz-adv-x="1128" d="M872 0V856Q864 845 857 834T844 817L229 0H164V1024H256V176Q262 187 268 197T281 215L891 1024H965V0H872ZM814 1266Q872 1266 918 1283T998 1329T1051 1396T1076 1475H1174Q1164 1421 1137 1370T1064 1278T956 1214T813 1190Q733 1190 673 1214T572 1278T507 1369T472 1475H570Q575 1434 592 1396T639 1329T712 1283T812 1266H814Z"/><glyph unicode="к" horiz-adv-x="891" d="M741 0L260 502H256V0H164V1024H256V535H260L735 1024H854L358 524L870 0H741Z"/><glyph unicode="л" horiz-adv-x="1026" d="M770 0V940H471Q454 712 427 535T355 235T245 50T88 -14Q73 -14 58 -12T31 -6V76Q39 73 57 71T86 68Q153 68 203 130T289 314T349 614T389 1024H862V0H770Z"/><glyph unicode="м" horiz-adv-x="1300" d="M1047 0V885L1020 813Q1009 783 997 751T975 696L698 0H623L324 696Q314 717 302 749T279 811Q266 846 252 885V0H164V1024H274L586 315Q597 291 609 259T633 196Q646 161 659 125Q673 160 687 194Q698 223 711 255T733 311L1024 1024H1137V0H1047Z"/><glyph unicode="н" horiz-adv-x="1116" d="M860 0V489H256V0H164V1024H256V573H860V1024H952V0H860Z"/><glyph unicode="о" horiz-adv-x="1149" d="M575 -25Q351 -25 221 122T90 506Q90 761 226 905T586 1049Q805 1049 932 906T1059 510Q1059 271 930 123T575 -25ZM582 965Q401 965 294 843T186 504Q186 303 291 181T578 59Q763 59 863 179T963 512Q963 731 864 848T582 965Z"/><glyph unicode="п" horiz-adv-x="1116" d="M860 0V940H256V0H164V1024H952V0H860Z"/><glyph unicode="р" horiz-adv-x="1147" d="M260 182H256V-471H164V1024H256V813H260Q315 926 417 987T643 1049Q838 1049 947 915T1057 549Q1057 292 932 134T600 -25Q370 -25 260 182ZM256 563V434Q256 280 353 170T608 59Q765 59 863 193T961 547Q961 739 871 852T631 965Q452 965 354 845T256 563Z"/><glyph unicode="с" horiz-adv-x="909" d="M827 45Q713 -25 555 -25Q346 -25 218 118T90 494Q90 738 234 893T604 1049Q721 1049 831 1001V897Q721 965 590 965Q410 965 298 836T186 500Q186 301 288 180T559 59Q713 59 827 141V45Z"/><glyph unicode="т" horiz-adv-x="756" d="M426 940V0H334V940H27V1024H733V940H426Z"/><glyph unicode="у" horiz-adv-x="928" d="M414 -209Q358 -347 290 -414T115 -481Q70 -481 35 -467V-375Q71 -389 119 -389Q242 -389 313 -219L408 8L20 1024H123L432 190Q442 163 446 149Q450 130 455 115H459L483 184L813 1024H913L414 -209Z"/><glyph unicode="ф" horiz-adv-x="1321" d="M1235 506Q1235 395 1198 302T1094 142T938 38T743 0H707V-481H614V0H578Q473 0 383 37T227 142T124 302T86 506Q86 624 121 720T220 883T373 987T573 1024H614V1458H707V1024H748Q857 1024 947 988T1101 884T1200 720T1235 506ZM1139 504Q1139 613 1109 695T1026 831T901 913T743 940H707V84H735Q823 84 897 112T1025 195T1109 327T1139 504ZM614 940H575Q491 940 419 913T295 832T212 695T182 504Q182 405 212 327T296 195T424 113T586 84H614V940Z"/><glyph unicode="х" horiz-adv-x="862" d="M481 502L815 0H698L428 432H424L388 375Q381 363 371 348L145 0H33L375 500L39 1024H147L375 657Q419 586 428 569H432L483 653L721 1024H829L481 502Z"/><glyph unicode="ц" horiz-adv-x="1155" d="M1026 -373V0H164V1024H256V84H860V1024H952V84H1110V-373H1026Z"/><glyph unicode="ч" horiz-adv-x="1071" d="M815 0V446Q718 394 630 366T451 338Q385 338 329 357T232 419T167 528T143 690V1024H236V698Q236 638 246 588T282 501T351 443T461 422Q558 422 646 451T815 526V1024H907V0H815Z"/><glyph unicode="ш" horiz-adv-x="1538" d="M164 0V1024H256V84H723V1024H815V84H1282V1024H1374V0H164Z"/><glyph unicode="щ" horiz-adv-x="1577" d="M1448 -373V0H164V1024H256V84H723V1024H815V84H1282V1024H1374V84H1532V-373H1448Z"/><glyph unicode="ъ" horiz-adv-x="1133" d="M1051 307Q1051 229 1024 171T953 75T854 19T741 0H348V940H27V1024H440V604H733Q807 604 866 584T966 526T1029 432T1051 307ZM954 307Q954 352 940 391T896 458T821 503T715 520H440V84H717Q781 84 826 101T900 149T941 220T954 307Z"/><glyph unicode="ы" horiz-adv-x="1346" d="M1090 0V1024H1182V0H1090ZM866 307Q866 229 839 171T769 75T670 19T557 0H164V1024H256V604H549Q622 604 681 584T781 526T844 432T866 307ZM770 307Q770 352 756 391T711 458T636 503T530 520H256V84H532Q597 84 642 101T715 149T757 220T770 307Z"/><glyph unicode="ь" horiz-adv-x="948" d="M866 307Q866 229 839 171T769 75T670 19T557 0H164V1024H256V604H549Q622 604 681 584T781 526T844 432T866 307ZM770 307Q770 352 756 391T711 458T636 503T530 520H256V84H532Q597 84 642 101T715 149T757 220T770 307Z"/><glyph unicode="э" horiz-adv-x="918" d="M827 510Q827 396 793 298T696 128T546 16T352 -25Q256 -25 190 -6T86 39V137Q128 105 197 82T356 59Q434 59 501 87T618 168T697 297T731 471H227V551H731Q725 639 699 715T624 846T504 933T338 965Q257 965 193 946T90 901V991Q111 1002 140 1012T204 1031T274 1044T346 1049Q457 1049 546 1012T697 906T793 736T827 510Z"/><glyph unicode="ю" horiz-adv-x="1595" d="M1505 510Q1505 403 1478 306T1396 136T1255 19T1055 -25Q944 -25 860 16T720 127T634 291T602 489H256V0H164V1024H256V573H604Q613 699 655 789T760 937T902 1022T1065 1049Q1165 1049 1246 1013T1385 909T1474 740T1505 510ZM1409 512Q1409 626 1385 711T1315 853T1206 937T1061 965Q979 965 912 934T798 844T724 700T698 504Q698 406 722 324T792 183T904 92T1057 59Q1147 59 1213 92T1323 186T1388 330T1409 512Z"/><glyph unicode="я" horiz-adv-x="987" d="M727 0V446H557Q530 446 500 439T440 411T382 355T330 264L215 0H102L231 285Q260 351 304 398T406 469Q281 484 221 555T160 739Q160 791 177 842T235 933T340 999T500 1024H823V0H727ZM727 944H506Q384 944 323 890T262 739Q262 682 279 643T327 578T403 542T500 530H727V944Z"/><glyph unicode="ё" horiz-adv-x="1034" d="M186 508Q186 297 283 178T551 59Q723 59 887 186V88Q728 -25 532 -25Q334 -25 212 117T90 518Q90 742 217 895T549 1049Q740 1049 842 915T944 549V508H186ZM848 592Q842 769 763 867T545 965Q401 965 307 869T190 592H848ZM702 1188Q675 1188 653 1207T631 1260Q631 1291 652 1310T700 1329Q729 1329 752 1310T776 1260Q776 1229 755 1209T702 1188ZM369 1188Q341 1188 319 1207T297 1260Q297 1291 319 1310T367 1329Q396 1329 419 1310T442 1260Q442 1229 421 1209T369 1188Z"/><glyph unicode="ђ" horiz-adv-x="1153" d="M1024 395Q1024 200 998 49T919 -204T784 -360T592 -414Q572 -414 544 -409T492 -395V-305Q514 -313 544 -320T594 -328Q688 -328 752 -278T855 -135T911 92T928 391Q928 539 907 643T844 814T741 910T602 940Q543 940 485 915T381 840T307 716T279 543V0H186V1231H51V1315H186V1516H279V1315H668V1231H279V811H283Q307 853 338 892T411 960T503 1006T616 1024Q723 1024 800 980T927 855T1000 657T1024 395Z"/><glyph unicode="ѓ" horiz-adv-x="694" d="M256 940V0H164V1024H664V940H256ZM375 1188H285L519 1516H623L375 1188Z"/><glyph unicode="є" horiz-adv-x="918" d="M789 20T720 -2T555 -25Q449 -25 363 13T217 119T123 283T90 494Q90 620 129 722T236 897T399 1009T604 1049Q673 1049 731 1035T831 1001V897Q789 923 730 944T590 965Q504 965 433 935T310 849T227 718T188 551H690V471H186Q190 374 219 298T298 168T414 87T559 59Q649 59 717 84T827 141V45Q789 20 720 -2Z"/><glyph unicode="ѕ" horiz-adv-x="795" d="M111 45V156Q163 111 237 85T365 59Q606 59 606 256Q606 324 553 372T381 471Q234 535 175 603T115 770Q115 895 210 972T446 1049Q578 1049 672 995V891Q558 965 436 965Q335 965 273 913T211 776Q211 703 250 658T422 553Q582 481 642 420T702 256Q702 134 611 55T358 -25Q210 -25 111 45Z"/><glyph unicode="і" horiz-adv-x="420" d="M209 1282Q179 1282 156 1304T133 1360Q133 1393 156 1413T209 1434Q240 1434 263 1414T287 1360Q287 1328 264 1305T209 1282ZM164 0V1024H256V0H164Z"/><glyph unicode="ї" horiz-adv-x="420" d="M164 0V1024H256V0H164ZM377 1188Q350 1188 328 1207T306 1260Q306 1291 327 1310T375 1329Q404 1329 427 1310T451 1260Q451 1229 430 1209T377 1188ZM44 1188Q16 1188 -6 1207T-28 1260Q-28 1291 -6 1310T42 1329Q71 1329 94 1310T117 1260Q117 1229 96 1209T44 1188Z"/><glyph unicode="ј" horiz-adv-x="420" d="M209 1282Q179 1282 156 1304T133 1360Q133 1393 156 1413T209 1434Q240 1434 263 1414T287 1360Q287 1328 264 1305T209 1282ZM256 29Q256 -481 -106 -481Q-178 -481 -252 -446V-350Q-172 -397 -96 -397Q164 -397 164 12V1024H256V29Z"/><glyph unicode="љ" horiz-adv-x="1583" d="M1473 307Q1473 229 1446 171T1375 75T1276 19T1163 0H770V940H471Q454 712 427 535T355 235T245 50T88 -14Q73 -14 58 -12T31 -6V76Q39 73 57 71T86 68Q153 68 203 130T289 314T349 614T389 1024H862V604H1155Q1229 604 1288 584T1388 526T1451 432T1473 307ZM1376 307Q1376 352 1362 391T1317 458T1242 503T1137 520H862V84H1139Q1203 84 1248 101T1322 149T1363 220T1376 307Z"/><glyph unicode="њ" horiz-adv-x="1673" d="M1563 303Q1563 225 1536 168T1465 73T1366 18T1253 0H860V512H256V0H164V1024H256V596H860V1024H952V596H1245Q1319 596 1378 577T1478 520T1541 428T1563 303ZM1466 303Q1466 348 1452 386T1408 453T1333 496T1227 512H952V84H1229Q1293 84 1338 101T1412 147T1453 217T1466 303Z"/><glyph unicode="ћ" horiz-adv-x="1118" d="M883 0V590Q883 771 817 855T610 940Q581 940 545 933T473 907T401 859T339 785T296 681T279 543V0H186V1231H51V1315H186V1516H279V1315H668V1231H279V815H283Q307 859 341 897T420 963T517 1008T635 1024Q721 1024 785 996T891 914T954 784T975 610V0H883Z"/><glyph unicode="ќ" horiz-adv-x="891" d="M741 0L260 502H256V0H164V1024H256V535H260L735 1024H854L358 524L870 0H741ZM515 1188H425L659 1516H763L515 1188Z"/><glyph unicode="ў" horiz-adv-x="928" d="M414 -209Q358 -347 290 -414T115 -481Q70 -481 35 -467V-375Q71 -389 119 -389Q242 -389 313 -219L408 8L20 1024H123L432 190Q442 163 446 149Q450 130 455 115H459L483 184L813 1024H913L414 -209ZM449 1266Q507 1266 553 1283T633 1329T686 1396T711 1475H809Q799 1421 772 1370T699 1278T591 1214T448 1190Q368 1190 308 1214T207 1278T142 1369T107 1475H205Q210 1434 227 1396T274 1329T347 1283T447 1266H449Z"/><glyph unicode="џ" horiz-adv-x="1116" d="M602 0V-373H518V0H164V1024H256V84H860V1024H952V0H602Z"/><glyph unicode="Ґ" horiz-adv-x="918" d="M283 1343V0H184V1434H762V1698H858V1343H283Z"/><glyph unicode="ґ" horiz-adv-x="743" d="M256 940V0H164V1024H598V1294H682V940H256Z"/><glyph unicode="‐" horiz-adv-x="815" d="M145 555V645H692V555H145Z"/><glyph unicode="–" horiz-adv-x="1024" d="M0 555V645H1024V555H0Z"/><glyph unicode="—" horiz-adv-x="2048" d="M0 555V645H2048V555H0Z"/><glyph unicode="‘" horiz-adv-x="438" d="M219 985H113L266 1434H342L219 985Z"/><glyph unicode="’" horiz-adv-x="438" d="M186 985H113L238 1434H342L186 985Z"/><glyph unicode="‚" horiz-adv-x="438" d="M152 -225H78L203 219H307L152 -225Z"/><glyph unicode="“" horiz-adv-x="686" d="M465 985H360L516 1434H590L465 985ZM219 985H113L266 1434H342L219 985Z"/><glyph unicode="”" horiz-adv-x="686" d="M436 985H360L483 1434H590L436 985ZM186 985H113L238 1434H342L186 985Z"/><glyph unicode="„" horiz-adv-x="686" d="M401 -229H326L449 219H555L401 -229ZM152 -229H78L203 219H307L152 -229Z"/><glyph unicode="†" horiz-adv-x="756" d="M708 933L436 963L406 229H370L340 963L48 933V1043L360 1023L330 1433H446L416 1023L708 1043V933Z"/><glyph unicode="‡" horiz-adv-x="756" d="M708 519L416 549L446 229H330L360 549L48 519V629L340 609L378 831L340 1053L48 1033V1143L360 1113L330 1433H446L416 1113L708 1143V1033L436 1053L398 831L436 609L708 629V519Z"/><glyph unicode="•" horiz-adv-x="811" d="M408 477Q307 477 236 547T164 713Q164 810 235 882T408 954Q507 954 577 883T647 713Q647 615 577 546T408 477Z"/><glyph unicode="…" horiz-adv-x="1364" d="M1139 -16Q1105 -16 1082 7T1059 66Q1059 100 1082 122T1139 145Q1173 145 1197 123T1221 66Q1221 31 1197 8T1139 -16ZM678 -16Q644 -16 621 7T598 66Q598 100 621 122T678 145Q712 145 736 123T760 66Q760 31 736 8T678 -16ZM221 -16Q187 -16 164 7T141 66Q141 100 164 122T221 145Q255 145 279 123T303 66Q303 31 279 8T221 -16Z"/><glyph unicode="‰" horiz-adv-x="2445" d="M414 729Q260 729 171 830T82 1092Q82 1267 176 1364T424 1462Q574 1462 662 1365T750 1094Q750 938 659 834T414 729ZM422 1380Q307 1380 241 1304T174 1090Q174 961 238 885T416 809Q530 809 594 887T659 1096Q659 1237 595 1308T422 1380ZM416 -33H317L1180 1432H1276L416 -33ZM2021 -25Q1867 -25 1779 76T1690 338Q1690 515 1786 612T2032 709Q2182 709 2269 611T2357 340Q2357 184 2266 80T2021 -25ZM2030 627Q1917 627 1850 551T1782 336Q1782 208 1846 132T2023 55Q2138 55 2202 132T2267 342Q2267 484 2203 555T2030 627ZM1198 -25Q1045 -25 956 76T866 338Q866 515 962 612T1208 709Q1358 709 1446 611T1534 340Q1534 184 1443 80T1198 -25ZM1206 627Q1092 627 1025 549T958 336Q958 207 1022 131T1200 55Q1315 55 1379 132T1444 342Q1444 483 1380 555T1206 627Z"/><glyph unicode="‹" horiz-adv-x="635" d="M401 201L123 537L401 881H514L231 537L512 201H401Z"/><glyph unicode="›" horiz-adv-x="635" d="M238 201H123L408 545L125 881H238L514 545L238 201Z"/><glyph unicode="€" horiz-adv-x="1055" d="M963 53Q833 -25 688 -25Q510 -25 385 110T223 500H78V584H215Q211 632 211 686Q211 757 217 821H78V905H227Q271 1169 405 1313T729 1458Q857 1458 963 1405V1303Q845 1374 721 1374Q575 1374 467 1255T322 905H864V821H311Q307 787 307 698Q307 640 311 584H864V500H322Q355 281 456 170T700 59Q826 59 963 152V53Z"/><glyph unicode="№" horiz-adv-x="2320" d="M2202 1028Q2202 944 2179 868T2108 734T1987 641T1815 606Q1717 606 1644 640T1523 731T1451 864T1427 1024Q1427 1138 1460 1219T1549 1351T1675 1427T1823 1452Q1910 1452 1980 1424T2099 1341T2175 1208T2202 1028ZM1460 350V428H2169V350H1460ZM1168 0L336 1169Q331 1177 323 1189T306 1213T289 1238T277 1259H273Q274 1246 274 1230T275 1196T275 1163T275 1132V0H184V1434H258L1083 275Q1090 265 1098 253T1115 228T1132 204T1145 183H1149Q1147 210 1146 244T1145 303V1434H1235V0H1168ZM2116 1030Q2116 1118 2095 1183T2035 1291T1941 1355T1819 1376Q1749 1376 1693 1353T1596 1284T1535 1174T1513 1024Q1513 948 1533 886T1591 778T1686 709T1815 684Q1891 684 1948 709T2042 780T2097 889T2116 1030Z"/><glyph unicode="™" horiz-adv-x="1585" d="M1294 772V1305H1290L1063 772H995L778 1305H774V772H692V1434H807L1030 889H1034L1268 1434H1376V772H1294ZM373 1356V772H291V1356H70V1434H596V1356H373Z"/><glyph unicode="﴾" horiz-adv-x="578" d="M453 -326Q150 28 150 545Q150 1085 457 1434H555Q242 1074 242 547Q242 50 551 -326H453Z"/><glyph unicode="﴿" horiz-adv-x="578" d="M125 -326H27Q336 50 336 547Q336 1074 23 1434H121Q428 1083 428 545Q428 26 125 -326Z"/></font>
</defs>
</svg>
