<?xml version="1.0" encoding="UTF-8"?><svg xmlns="http://www.w3.org/2000/svg" width="100%" height="100%"><defs><font id="web" horiz-adv-x="1208"><!--



NOTICE: This font software is the valuable property 
of Monotype Imaging and/or its suppliers and its use 
by you is covered under the terms of the Web Font license 
agreement between you and Monotype Imaging. You may 
ONLY use this font software with the licensed web site. 
Except as specifically permitted by the license, you 
may not copy this font software. If you have any questions, 
please contact Monotype Imaging. 

For more information, please visit http://www.ascenderfonts.com/info/webfont-eula.aspx

Licensed to: microsoft

Serial number: SH-273
--><font-face font-family="" units-per-em="2048" panose-1="2 11 8 2 4 2 4 2 2 3" ascent="2210" descent="-514" alphabetic="0"/><missing-glyph horiz-adv-x="1322" d="M166 0V1398H1156V0H166ZM314 148H1008V1250H314V148Z"/><glyph unicode="&#13;" horiz-adv-x="100"/><glyph unicode=" " horiz-adv-x="565"/><glyph unicode="!" horiz-adv-x="670" d="M500 1434L461 446H205L168 1434H500ZM336 -23Q256 -23 204 25T152 143Q152 215 204 261T336 307Q416 307 467 261T518 143Q518 71 468 24T336 -23Z"/><glyph unicode="&quot;" horiz-adv-x="1010" d="M819 1452V1008H586V1452H819ZM423 1452V1010H191V1452H423Z"/><glyph unicode="#" horiz-adv-x="1213" d="M1176 1069L1137 889H952L897 641H1104L1059 461H860L782 115H582L655 461H426L352 115H152L223 461H37L74 641H262L315 889H113L147 1069H352L426 1425H631L557 1069H786L862 1425H1065L991 1069H1176ZM750 889H518L463 641H694L750 889Z"/><glyph unicode="$" horiz-adv-x="1178" d="M674 8V-209H528V2Q325 3 150 94V371Q208 324 323 284T528 238V602Q294 689 209 790T123 1038Q123 1195 234 1305T528 1434V1620H674V1438Q885 1428 989 1370V1100Q849 1185 674 1204V825Q893 746 988 645T1083 399Q1083 233 977 132T674 8ZM528 883V1200Q389 1175 389 1055Q389 952 528 883ZM674 545V242Q817 264 817 385Q817 483 674 545Z"/><glyph unicode="%" horiz-adv-x="1776" d="M430 707Q277 707 184 804T90 1065Q90 1244 189 1349T455 1454Q614 1454 703 1359T793 1092Q793 915 694 811T430 707ZM449 1278Q303 1278 303 1075Q303 883 442 883Q584 883 584 1083Q584 1278 449 1278ZM1477 1434L543 0H299L1231 1434H1477ZM1323 -20Q1170 -20 1077 77T983 338Q983 517 1082 622T1348 727Q1508 727 1597 633T1686 367Q1686 190 1587 85T1323 -20ZM1339 551Q1194 551 1194 348Q1194 156 1335 156Q1477 156 1477 356Q1477 449 1439 500T1339 551Z"/><glyph unicode="&amp;" horiz-adv-x="1740" d="M1479 -23Q1426 -23 1379 -9T1289 29T1208 85T1136 155Q1099 125 1047 93T930 36T785 -6T616 -23Q499 -23 400 5T228 88T116 226T75 416Q75 501 105 567T185 684T296 770T422 830Q391 854 360 885T303 954T263 1036T247 1129Q247 1208 279 1269T368 1372T506 1436T682 1458Q774 1458 850 1435T982 1371T1067 1273T1097 1146Q1097 1035 1031 954T843 821Q891 799 935 771T1021 707T1103 626T1182 521Q1264 624 1299 740T1335 983Q1335 1021 1331 1056T1316 1121H1585Q1596 1089 1601 1059T1606 988Q1606 891 1586 799T1528 623T1439 464T1323 324Q1372 273 1424 246T1522 218Q1570 218 1620 228T1707 258V20Q1652 -2 1599 -12T1479 -23ZM632 216Q691 216 743 227T841 258T926 302T999 354Q948 434 898 489T799 584T702 651T604 700Q563 680 526 656T459 599T413 525T395 429Q395 381 412 342T460 275T535 232T632 216ZM817 1124Q817 1153 806 1176T776 1214T733 1238T682 1247Q649 1247 622 1237T574 1210T542 1170T531 1119Q531 1063 566 1016T653 940Q686 952 715 968T767 1006T803 1057T817 1124Z"/><glyph unicode="'" horiz-adv-x="600" d="M415 1452V1010H175V1452H415Z"/><glyph unicode="(" horiz-adv-x="756" d="M739 -326H481Q158 30 158 549Q158 1050 481 1434H737Q434 1032 434 549Q434 66 739 -326Z"/><glyph unicode=")" horiz-adv-x="756" d="M274 -326H18Q324 64 324 549Q324 1030 18 1434H276Q600 1049 600 549Q600 34 274 -326Z"/><glyph unicode="*" horiz-adv-x="932" d="M864 1053L590 1016L786 805L604 680L467 934L330 680L147 805L344 1016L70 1053L141 1255L393 1147L350 1434H584L541 1147L791 1255L864 1053Z"/><glyph unicode="+" horiz-adv-x="1448" d="M1212 485H827V100H625V485H238V688H625V1075H827V688H1212V485Z"/><glyph unicode="," horiz-adv-x="555" d="M432 252L285 -254H39L141 252H432Z"/><glyph unicode="-" horiz-adv-x="828" d="M690 436H143V657H690V436Z"/><glyph unicode="." horiz-adv-x="555" d="M274 -25Q196 -25 144 23T92 141Q92 213 145 259T279 305Q360 305 411 259T463 141Q463 68 411 22T274 -25Z"/><glyph unicode="/" horiz-adv-x="908" d="M932 1434L233 -238H-49L647 1434H932Z"/><glyph unicode="0" horiz-adv-x="1178" d="M581 -25Q69 -25 69 694Q69 1067 207 1262T609 1458Q1109 1458 1109 727Q1109 363 973 169T581 -25ZM595 1217Q390 1217 390 702Q390 217 591 217Q787 217 787 717Q787 1217 595 1217Z"/><glyph unicode="1" horiz-adv-x="1178" d="M832 1466V0H517V1110Q491 1087 456 1067T380 1030T297 1002T212 985V1251Q335 1287 444 1343T641 1466H832Z"/><glyph unicode="2" horiz-adv-x="1178" d="M429 262H1037V0H83V108Q83 218 120 305T213 462T335 585T462 682Q525 727 572 768T652 849T701 931T717 1020Q717 1112 665 1159T506 1206Q321 1206 152 1059V1337Q339 1458 574 1458Q683 1458 769 1430T916 1348T1007 1220T1039 1051Q1039 952 1009 875T928 735T811 620T674 518Q626 484 582 451T503 385T449 321T429 262Z"/><glyph unicode="3" horiz-adv-x="1178" d="M117 47V322Q261 217 453 217Q574 217 641 269T709 414Q709 510 626 562T396 614H263V856H386Q666 856 666 1042Q666 1217 451 1217Q307 1217 171 1124V1382Q322 1458 523 1458Q743 1458 865 1359T988 1102Q988 821 703 750V745Q855 726 943 635T1031 410Q1031 209 884 92T478 -25Q256 -25 117 47Z"/><glyph unicode="4" horiz-adv-x="1178" d="M952 1434V530H1124V294H952V0H664V294H39V541Q122 634 211 744T383 972T537 1207T659 1434H952ZM322 530H664V1031Q629 966 588 900T502 769T411 644T322 530Z"/><glyph unicode="5" horiz-adv-x="1178" d="M142 37V307Q289 217 455 217Q580 217 650 276T721 438Q721 651 420 651Q309 651 164 634L218 1434H977V1176H459L439 889Q516 895 572 895Q793 895 918 779T1043 467Q1043 250 894 113T490 -25Q283 -25 142 37Z"/><glyph unicode="6" horiz-adv-x="1178" d="M1110 477Q1110 371 1073 279T970 120T813 14T614 -25Q493 -25 398 20T236 150T135 360T100 641Q100 826 145 976T275 1234T480 1399T750 1458Q916 1458 1008 1419V1155Q899 1217 770 1217Q690 1217 625 1186T514 1098T441 961T412 781H418Q520 922 719 922Q808 922 880 890T1003 800T1082 659T1110 477ZM801 457Q801 688 612 688Q569 688 534 672T474 627T436 559T422 471Q422 418 436 372T475 292T536 237T614 217Q657 217 691 234T750 283T788 359T801 457Z"/><glyph unicode="7" horiz-adv-x="1178" d="M1094 1252Q998 1079 922 928T788 629T689 329T622 0H292Q320 167 366 322T472 622T606 906T762 1176H96V1434H1094V1252Z"/><glyph unicode="8" horiz-adv-x="1178" d="M80 386Q80 446 97 501T150 604T237 689T361 751Q252 805 192 889T132 1077Q132 1159 166 1229T262 1350T407 1429T592 1458Q694 1458 779 1430T925 1351T1021 1231T1055 1081Q1055 979 991 896T814 758Q884 734 937 697T1026 611T1080 507T1098 389Q1098 297 1061 222T957 92T796 7T589 -23Q478 -23 385 6T224 90T118 219T80 386ZM379 413Q379 364 394 325T437 259T503 218T590 203Q636 203 674 218T741 260T785 326T801 413Q801 456 786 495T743 562T677 608T590 625Q545 625 506 610T439 566T395 498T379 413ZM423 1048Q423 1010 436 977T473 919T527 880T594 866Q630 866 661 880T715 919T752 977T766 1048Q766 1087 753 1120T717 1178T662 1217T594 1231Q556 1231 525 1217T471 1178T436 1120T423 1048Z"/><glyph unicode="9" horiz-adv-x="1178" d="M1087 786Q1087 595 1045 445T923 190T726 31T463 -25Q287 -25 160 31V291Q273 217 432 217Q595 217 687 328T780 649L774 651Q679 510 485 510Q397 510 323 543T194 634T109 774T78 952Q78 1065 115 1158T218 1318T378 1421T584 1458Q701 1458 794 1413T952 1281T1052 1070T1087 786ZM768 954Q768 1009 754 1057T715 1141T654 1196T575 1217Q534 1217 500 1199T440 1150T401 1074T387 979Q387 923 401 880T440 806T502 761T582 745Q624 745 658 761T716 806T754 872T768 954Z"/><glyph unicode=":" horiz-adv-x="555" d="M274 707Q196 707 144 754T92 872Q92 944 145 990T279 1036Q360 1036 411 990T463 872Q463 799 411 753T274 707ZM274 -25Q196 -25 144 23T92 141Q92 213 145 259T279 305Q360 305 411 259T463 141Q463 68 411 22T274 -25Z"/><glyph unicode=";" horiz-adv-x="555" d="M281 707Q202 707 150 755T98 872Q98 945 150 990T283 1036Q364 1036 415 990T467 872Q467 799 416 753T281 707ZM432 252L285 -254H39L141 252H432Z"/><glyph unicode="&lt;" horiz-adv-x="1448" d="M1192 63L258 489V651L1192 1098V860L526 575V569L1192 301V63Z"/><glyph unicode="=" horiz-adv-x="1448" d="M1212 700H238V905H1212V700ZM1212 266H238V469H1212V266Z"/><glyph unicode="&gt;" horiz-adv-x="1448" d="M1192 502L258 76V313L926 580V584L258 870V1108L1192 664V502Z"/><glyph unicode="?" horiz-adv-x="897" d="M263 415Q253 441 248 473T242 535Q242 581 251 619T278 690T323 754T386 815Q424 847 452 874T501 929T531 986T541 1052Q541 1083 530 1109T499 1155T449 1185T383 1196Q305 1196 221 1164T62 1065V1366Q139 1412 230 1435T418 1458Q511 1458 591 1438T730 1373T823 1261T857 1096Q857 1035 843 986T802 892T735 808T643 724Q608 695 582 670T538 621T511 569T502 506Q502 482 508 457T526 415H263ZM409 -23Q329 -23 276 25Q223 75 223 143Q223 213 276 260Q329 307 409 307Q488 307 540 260Q592 214 592 143Q592 71 541 24Q489 -23 409 -23Z"/><glyph unicode="@" horiz-adv-x="1954" d="M1122 371H1116Q1046 180 862 180Q724 180 640 280T555 557Q555 786 672 929T954 1073Q1103 1073 1141 956H1145L1155 1055H1380Q1335 629 1335 498Q1335 358 1411 358Q1491 358 1543 464T1595 741Q1595 975 1446 1124T1030 1274Q744 1274 555 1075T365 588Q365 310 532 150T995 -10Q1220 -10 1407 76V-115Q1236 -188 967 -188Q598 -188 367 23T135 592Q135 956 382 1204T1018 1452Q1378 1452 1600 1260T1823 752Q1823 493 1687 337T1350 180Q1251 180 1189 233T1122 371ZM989 899Q899 899 843 797T786 559Q786 463 824 410T924 356Q1018 356 1072 457T1126 727Q1126 807 1089 853T989 899Z"/><glyph unicode="A" horiz-adv-x="1440" d="M1425 0H1073L971 319H461L360 0H10L532 1434H915L1425 0ZM897 567L743 1049Q726 1103 719 1178H711Q706 1115 686 1053L530 567H897Z"/><glyph unicode="B" horiz-adv-x="1313" d="M164 0V1434H686Q926 1434 1055 1346T1184 1098Q1184 982 1106 895T905 774V770Q1058 751 1149 657T1241 428Q1241 231 1100 116T715 0H164ZM487 1196V856H629Q729 856 786 904T844 1038Q844 1196 608 1196H487ZM487 616V238H662Q774 238 837 290T901 432Q901 518 839 567T664 616H487Z"/><glyph unicode="C" horiz-adv-x="1278" d="M1192 51Q1035 -25 782 -25Q452 -25 263 169T74 686Q74 1030 286 1244T838 1458Q1048 1458 1192 1405V1094Q1048 1180 864 1180Q662 1180 538 1053T414 709Q414 501 531 378T846 254Q1035 254 1192 346V51Z"/><glyph unicode="D" horiz-adv-x="1510" d="M164 0V1434H672Q1436 1434 1436 735Q1436 400 1228 200T672 0H164ZM487 1171V262H647Q857 262 976 388T1096 731Q1096 936 978 1053T645 1171H487Z"/><glyph unicode="E" horiz-adv-x="1090" d="M1024 0H164V1434H991V1171H487V852H956V590H487V262H1024V0Z"/><glyph unicode="F" horiz-adv-x="1065" d="M993 1171H487V819H952V557H487V0H164V1434H993V1171Z"/><glyph unicode="G" horiz-adv-x="1456" d="M1341 96Q1131 -25 819 -25Q473 -25 274 166T74 694Q74 1032 292 1245T872 1458Q1100 1458 1274 1395V1092Q1108 1188 868 1188Q667 1188 541 1058T414 709Q414 488 527 367T834 246Q950 246 1018 279V559H731V817H1341V96Z"/><glyph unicode="H" horiz-adv-x="1569" d="M1405 0H1081V584H487V0H164V1434H487V862H1081V1434H1405V0Z"/><glyph unicode="I" horiz-adv-x="649" d="M487 0H164V1434H487V0Z"/><glyph unicode="J" horiz-adv-x="912" d="M762 569Q762 281 629 128T242 -25Q129 -25 33 14V317Q116 254 219 254Q440 254 440 582V1434H762V569Z"/><glyph unicode="K" horiz-adv-x="1329" d="M1356 0H948L530 623Q518 641 492 702H487V0H164V1434H487V756H492Q504 784 532 836L928 1434H1313L813 750L1356 0Z"/><glyph unicode="L" horiz-adv-x="1047" d="M1018 0H164V1434H487V262H1018V0Z"/><glyph unicode="M" horiz-adv-x="1960" d="M1798 0H1479V858Q1479 997 1491 1165H1483Q1458 1033 1438 975L1102 0H838L496 965Q482 1004 451 1165H442Q455 953 455 793V0H164V1434H637L930 584Q965 482 981 379H987Q1014 498 1044 586L1337 1434H1798V0Z"/><glyph unicode="N" horiz-adv-x="1618" d="M1454 0H1128L537 901Q485 980 465 1020H461Q469 944 469 788V0H164V1434H512L1081 561Q1120 502 1153 444H1157Q1149 494 1149 641V1434H1454V0Z"/><glyph unicode="O" horiz-adv-x="1553" d="M770 -25Q462 -25 268 175T74 698Q74 1038 271 1248T793 1458Q1100 1458 1289 1257T1479 727Q1479 389 1283 182T770 -25ZM784 1180Q614 1180 514 1053T414 715Q414 502 514 378T776 254Q943 254 1041 374T1139 709Q1139 932 1044 1056T784 1180Z"/><glyph unicode="P" horiz-adv-x="1258" d="M487 494V0H164V1434H670Q1212 1434 1212 977Q1212 761 1057 628T641 494H487ZM487 1186V739H614Q872 739 872 965Q872 1186 614 1186H487Z"/><glyph unicode="Q" horiz-adv-x="1553" d="M770 -25Q462 -25 268 175Q74 377 74 698Q74 1037 271 1248Q467 1458 793 1458Q1100 1458 1289 1257Q1479 1057 1479 727Q1479 390 1282 182Q1275 175 1269 169T1256 156L1619 -193H1167L977 0Q883 -25 770 -25ZM784 1180Q615 1180 514 1052Q414 925 414 715Q414 502 514 378Q614 254 776 254Q943 254 1041 374Q1139 496 1139 709Q1139 931 1044 1056Q950 1180 784 1180Z"/><glyph unicode="R" horiz-adv-x="1337" d="M1367 0H996L773 369Q748 411 725 444T679 500T630 536T574 549H487V0H164V1434H676Q1198 1434 1198 1044Q1198 969 1175 906T1110 791T1009 703T876 645V641Q908 631 938 609T996 556T1049 492T1096 424L1367 0ZM487 1192V793H627Q731 793 794 853Q858 914 858 1004Q858 1192 633 1192H487Z"/><glyph unicode="S" horiz-adv-x="1148" d="M98 55V375Q185 302 287 266T493 229Q554 229 599 240T675 270T721 316T736 374Q736 416 712 449T647 510T548 564T425 617Q257 687 175 788T92 1032Q92 1144 137 1224T259 1357T439 1433T655 1458Q767 1458 853 1445T1013 1403V1104Q977 1129 935 1148T847 1179T758 1198T673 1204Q618 1204 573 1194T497 1164T449 1119T432 1059Q432 1023 451 995T505 941T590 891T703 840Q789 804 857 764T975 672T1050 556T1076 403Q1076 283 1031 202T907 70T726 -3T507 -25Q389 -25 283 -5T98 55Z"/><glyph unicode="T" horiz-adv-x="1200" d="M1171 1171H762V0H438V1171H31V1434H1171V1171Z"/><glyph unicode="U" horiz-adv-x="1481" d="M1333 621Q1333 -25 731 -25Q147 -25 147 606V1434H471V602Q471 254 743 254Q1010 254 1010 590V1434H1333V621Z"/><glyph unicode="V" horiz-adv-x="1366" d="M1358 1434L864 0H498L10 1434H358L657 436Q681 355 686 293H692Q699 360 723 440L1020 1434H1358Z"/><glyph unicode="W" horiz-adv-x="2058" d="M2040 1434L1661 0H1303L1065 920Q1046 992 1042 1081H1038Q1029 983 1012 920L768 0H395L18 1434H371L573 479Q586 418 592 315H598Q602 392 627 483L887 1434H1233L1468 471Q1481 418 1491 317H1495Q1499 396 1516 477L1714 1434H2040Z"/><glyph unicode="X" horiz-adv-x="1342" d="M1335 0H952L705 467Q691 493 676 563H672Q665 530 639 463L391 0H6L463 717L45 1434H438L643 1004Q667 953 686 883H690Q702 925 735 1008L963 1434H1323L893 723L1335 0Z"/><glyph unicode="Y" horiz-adv-x="1243" d="M1245 1434L778 510V0H455V504L0 1434H369L600 899Q606 884 633 782H637Q650 854 668 895L903 1434H1245Z"/><glyph unicode="Z" horiz-adv-x="1243" d="M1196 0H41V186L776 1171H94V1434H1194V1253L475 262H1196V0Z"/><glyph unicode="[" horiz-adv-x="756" d="M686 -326H217V1434H686V1233H477V-125H686V-326Z"/><glyph unicode="\" horiz-adv-x="893" d="M961 -238H682L0 1434H281L961 -238Z"/><glyph unicode="]" horiz-adv-x="756" d="M541 -326H70V-125H281V1233H70V1434H541V-326Z"/><glyph unicode="^" horiz-adv-x="1448" d="M1249 610H1006L719 1196H715L444 610H203L633 1458H795L1249 610Z"/><glyph unicode="_" horiz-adv-x="850" d="M850 -297H0V-178H850V-297Z"/><glyph unicode="`" horiz-adv-x="643" d="M596 1186H369L55 1509H336L596 1186Z"/><glyph unicode="a" horiz-adv-x="1102" d="M985 0H686V147H682Q579 -25 377 -25Q228 -25 143 59T57 285Q57 583 410 629L688 666Q688 834 506 834Q323 834 158 725V963Q224 997 338 1023T547 1049Q985 1049 985 612V0ZM688 416V485L502 461Q348 441 348 322Q348 268 385 234T487 199Q576 199 632 260T688 416Z"/><glyph unicode="b" horiz-adv-x="1270" d="M453 119H449V0H133V1516H449V870H453Q570 1049 786 1049Q984 1049 1091 913T1198 541Q1198 285 1073 130T739 -25Q550 -25 453 119ZM444 551V446Q444 347 501 282T647 217Q755 217 814 300T874 537Q874 664 820 735T664 807Q569 807 507 736T444 551Z"/><glyph unicode="c" horiz-adv-x="983" d="M909 37Q802 -25 600 -25Q364 -25 218 118T72 487Q72 748 228 898T647 1049Q828 1049 909 1001V733Q810 807 688 807Q552 807 473 728T393 508Q393 372 469 295T678 217Q796 217 909 291V37Z"/><glyph unicode="d" horiz-adv-x="1268" d="M1135 0H819V141H815Q707 -25 498 -25Q306 -25 189 110T72 489Q72 743 201 896T539 1049Q737 1049 815 907H819V1516H1135V0ZM825 498V575Q825 675 767 741T616 807Q511 807 452 725T393 498Q393 363 450 290T608 217Q704 217 764 294T825 498Z"/><glyph unicode="e" horiz-adv-x="1108" d="M1053 422H385Q401 199 666 199Q835 199 963 279V51Q821 -25 594 -25Q346 -25 209 112T72 496Q72 751 220 900T584 1049Q808 1049 930 916T1053 555V422ZM760 616Q760 836 582 836Q506 836 451 773T383 616H760Z"/><glyph unicode="f" horiz-adv-x="785" d="M801 1274Q740 1298 684 1298Q532 1298 532 1133V1024H766V791H532V0H217V791H45V1024H217V1151Q217 1326 331 1433T641 1540Q737 1540 801 1520V1274Z"/><glyph unicode="g" horiz-adv-x="1268" d="M1137 117Q1137 -168 972 -324T494 -481Q287 -481 166 -422V-156Q324 -248 485 -248Q645 -248 733 -164T821 66V147H817Q709 -25 498 -25Q302 -25 187 113T72 483Q72 743 200 896T537 1049Q724 1049 817 905H821V1024H1137V117ZM825 492V573Q825 670 768 738T618 807Q513 807 453 725T393 494Q393 366 450 292T606 217Q704 217 764 292T825 492Z"/><glyph unicode="h" horiz-adv-x="1233" d="M1116 0H801V582Q801 807 637 807Q553 807 501 744T449 584V0H133V1516H449V872H453Q569 1049 768 1049Q1116 1049 1116 629V0Z"/><glyph unicode="i" horiz-adv-x="582" d="M293 1186Q213 1186 162 1233T111 1350Q111 1421 162 1466T293 1511Q374 1511 424 1466T475 1350Q475 1278 425 1232T293 1186ZM449 0H133V1024H449V0Z"/><glyph unicode="j" horiz-adv-x="582" d="M293 1186Q213 1186 162 1233T111 1350Q111 1421 162 1466T293 1511Q374 1511 424 1466T475 1350Q475 1278 425 1232T293 1186ZM449 18Q449 -209 338 -345T18 -481Q-51 -481 -133 -451V-203Q-67 -240 -16 -240Q133 -240 133 -6V1024H449V18Z"/><glyph unicode="k" horiz-adv-x="1145" d="M1159 0H780L453 508H449V0H133V1516H449V551H453L758 1024H1133L766 543L1159 0Z"/><glyph unicode="l" horiz-adv-x="582" d="M449 0H133V1516H449V0Z"/><glyph unicode="m" horiz-adv-x="1876" d="M1759 0H1444V584Q1444 807 1280 807Q1202 807 1153 740T1104 573V0H788V590Q788 807 627 807Q546 807 498 743T449 569V0H133V1024H449V864H453Q502 946 590 997T784 1049Q1001 1049 1081 858Q1198 1049 1425 1049Q1759 1049 1759 637V0Z"/><glyph unicode="n" horiz-adv-x="1239" d="M1122 0H807V569Q807 807 637 807Q555 807 502 744T449 584V0H133V1024H449V862H453Q566 1049 782 1049Q1122 1049 1122 627V0Z"/><glyph unicode="o" horiz-adv-x="1252" d="M621 -25Q365 -25 219 118T72 508Q72 762 224 905T635 1049Q890 1049 1035 906T1180 526Q1180 271 1031 123T621 -25ZM629 807Q517 807 455 730T393 512Q393 217 631 217Q858 217 858 520Q858 807 629 807Z"/><glyph unicode="p" horiz-adv-x="1270" d="M453 119H449V-471H133V1024H449V870H453Q570 1049 782 1049Q981 1049 1089 913T1198 541Q1198 285 1072 130T735 -25Q550 -25 453 119ZM444 539V457Q444 351 500 284T647 217Q755 217 814 300T874 537Q874 807 664 807Q567 807 506 734T444 539Z"/><glyph unicode="q" horiz-adv-x="1268" d="M1135 -471H819V141H815Q708 -25 500 -25Q307 -25 190 109T72 487Q72 743 201 896T537 1049Q725 1049 815 905H819V1024H1135V-471ZM825 489V571Q825 671 767 739T618 807Q513 807 453 725T393 496Q393 365 451 291T604 217Q704 217 764 292T825 489Z"/><glyph unicode="r" horiz-adv-x="815" d="M801 739Q744 770 668 770Q565 770 507 695T449 489V0H133V1024H449V834H453Q528 1042 723 1042Q773 1042 801 1030V739Z"/><glyph unicode="s" horiz-adv-x="901" d="M66 27V283Q144 236 221 213T368 190Q452 190 500 213T549 283Q549 313 527 333T471 368T395 395T316 422Q255 445 209 471T131 533T83 614T66 723Q66 809 103 871T203 972T346 1030T514 1049Q582 1049 652 1039T790 1008V764Q730 799 662 816T527 834Q496 834 469 829T420 813T387 786T375 748Q375 720 393 700T440 666T504 640T575 616Q638 594 689 568T776 507T832 425T852 313Q852 222 813 158T708 53T557 -6T379 -25Q210 -25 66 27Z"/><glyph unicode="t" horiz-adv-x="797" d="M752 12Q682 -25 541 -25Q207 -25 207 322V791H41V1024H207V1245L522 1335V1024H752V791H522V377Q522 217 649 217Q699 217 752 246V12Z"/><glyph unicode="u" horiz-adv-x="1239" d="M1106 0H791V156H786Q669 -25 473 -25Q117 -25 117 406V1024H432V434Q432 217 604 217Q689 217 740 276T791 438V1024H1106V0Z"/><glyph unicode="v" horiz-adv-x="1110" d="M1108 1024L727 0H367L4 1024H342L520 393Q550 286 555 211H559Q566 282 596 387L778 1024H1108Z"/><glyph unicode="w" horiz-adv-x="1633" d="M1616 1024L1321 0H989L838 600Q823 660 821 731H815Q808 653 795 604L633 0H305L16 1024H338L479 356Q489 309 494 242H500Q505 312 518 360L694 1024H995L1153 356Q1159 331 1167 240H1174Q1179 298 1190 356L1323 1024H1616Z"/><glyph unicode="x" horiz-adv-x="1131" d="M1122 1024L784 528L1120 0H756L608 276Q590 309 565 369H561Q546 327 520 279L371 0H8L354 510L29 1024H395L541 737Q570 680 582 641H586Q602 688 629 739L778 1024H1122Z"/><glyph unicode="y" horiz-adv-x="1102" d="M1108 1024L692 -82Q542 -481 240 -481Q125 -481 51 -455V-203Q114 -240 188 -240Q310 -240 358 -125L412 2L-4 1024H346L537 401Q555 343 565 264H569Q578 322 602 399L795 1024H1108Z"/><glyph unicode="z" horiz-adv-x="981" d="M944 0H25V131L539 791H76V1024H940V868L453 233H944V0Z"/><glyph unicode="{" horiz-adv-x="756" d="M674 -326Q456 -326 357 -246T258 39V279Q258 463 106 463V647Q258 647 258 838V1061Q258 1267 356 1350T674 1434V1247Q514 1247 514 1073V860Q514 620 360 557V553Q514 491 514 246V41Q514 -57 551 -98T674 -139V-326Z"/><glyph unicode="|" horiz-adv-x="668" d="M461 -481H209V1567H461V-481Z"/><glyph unicode="}" horiz-adv-x="756" d="M651 463Q498 463 498 276V45Q498 -166 401 -246T84 -326V-139Q168 -139 206 -99T244 39V252Q244 491 397 551V555Q244 618 244 868V1073Q244 1247 84 1247V1434Q302 1434 400 1351T498 1065V836Q498 647 651 647V463Z"/><glyph unicode="~" horiz-adv-x="1448" d="M1255 772Q1249 604 1166 506T942 408Q836 408 684 496Q575 559 528 559Q405 559 399 399H195Q201 568 284 666T512 764Q624 764 750 688Q880 610 930 610Q982 610 1015 654T1051 772H1255Z"/><glyph unicode="¤" horiz-adv-x="1139" d="M1087 358L946 213L803 354Q698 289 569 289Q442 289 336 354L193 213L51 358L193 496Q127 606 127 725Q127 846 193 954L51 1094L193 1239L336 1098Q442 1163 569 1163Q698 1163 803 1098L946 1239L1087 1094L946 954Q1014 843 1014 725Q1014 610 946 496L1087 358ZM569 965Q469 965 400 896T330 727Q330 628 399 559T569 489Q669 489 740 558T811 727Q811 825 738 895T569 965Z"/><glyph unicode="¦" horiz-adv-x="668" d="M461 684H209V1567H461V684ZM461 -481H209V414H461V-481Z"/><glyph unicode="§" horiz-adv-x="994" d="M752 434Q834 359 834 260Q834 111 726 23T440 -66Q277 -66 150 2V250Q330 145 461 145Q588 145 588 244Q588 305 492 352Q351 417 282 464T172 581T131 731Q131 874 256 965Q168 1053 168 1180Q168 1320 270 1405T545 1491Q684 1491 805 1436V1186Q666 1282 545 1282Q422 1282 422 1188Q422 1143 462 1111T647 1014Q901 902 901 705Q901 538 752 434ZM432 864Q367 826 367 754Q367 697 418 652T596 553Q662 597 662 676Q662 738 609 776T432 864Z"/><glyph unicode="¨" horiz-adv-x="946" d="M698 1186Q631 1186 588 1225T545 1323Q545 1384 588 1422T698 1460Q765 1460 808 1422T852 1323Q852 1263 809 1225T698 1186ZM240 1186Q172 1186 129 1225T86 1323Q86 1383 130 1421T240 1460Q308 1460 350 1422T393 1323Q393 1262 351 1224T240 1186Z"/><glyph unicode="©" horiz-adv-x="1790" d="M893 -25Q560 -25 346 182T131 713Q131 1030 351 1244T901 1458Q1229 1458 1445 1250T1661 717Q1661 400 1440 188T893 -25ZM897 1346Q622 1346 443 1166T264 717Q264 445 445 267T897 88Q1162 88 1345 267T1528 715Q1528 987 1348 1166T897 1346ZM1204 295Q1079 227 930 227Q721 227 584 361T446 696Q446 927 589 1066T963 1206Q1088 1206 1202 1151V915Q1104 991 958 991Q843 991 766 915T688 709Q688 587 766 512T965 436Q1106 436 1204 512V295Z"/><glyph unicode="«" horiz-adv-x="1190" d="M1137 201H868L541 537L868 881H1137L803 537L1137 201ZM651 201H383L53 537L383 881H649L315 537L651 201Z"/><glyph unicode="¬" horiz-adv-x="1448" d="M1212 266H1010V655H238V858H1212V266Z"/><glyph unicode="­" horiz-adv-x="828" d="M690 436H143V657H690V436Z"/><glyph unicode="®" horiz-adv-x="1790" d="M892 255Q626 255 455 427T283 858Q283 1112 459 1283T899 1454Q1161 1454 1334 1288T1501 858Q1501 604 1327 430T892 255ZM893 1344Q679 1344 540 1205T400 855Q400 643 541 504T893 365Q1100 365 1242 505T1384 854Q1384 1066 1244 1205T893 1344ZM1208 499H1000L939 685Q907 782 851 782H803V499H628V1237H884Q1180 1237 1180 1027Q1180 876 1007 832V829Q1079 813 1120 712L1208 499ZM803 1093V915H881Q992 915 992 1007Q992 1093 864 1093H803Z"/><glyph unicode="°" horiz-adv-x="778" d="M399 895Q280 895 198 977T115 1178Q115 1296 197 1377T399 1458Q517 1458 600 1377T684 1178Q684 1060 601 978T399 895ZM399 1307Q345 1307 308 1270T270 1178Q270 1124 307 1086T399 1047Q452 1047 490 1085T528 1178Q528 1232 491 1269T399 1307Z"/><glyph unicode="±" horiz-adv-x="1448" d="M1212 694H827V307H625V694H242V897H625V1288H827V897H1212V694ZM1210 0H238V203H1210V0Z"/><glyph unicode="´" horiz-adv-x="621" d="M596 1509L283 1186H55L315 1509H596Z"/><glyph unicode="µ" horiz-adv-x="1255" d="M1161 0H837Q812 70 812 154H808Q751 -23 592 -23Q495 -23 452 41H449V-395H133V1024H449V435Q449 228 619 228Q803 228 803 482V1024H1122V314Q1122 78 1161 0Z"/><glyph unicode="¶" horiz-adv-x="1043" d="M946 1272H829V0H655V1272H537V0H360V836Q245 843 169 928T92 1139Q92 1268 177 1351T389 1434H946V1272Z"/><glyph unicode="»" horiz-adv-x="1190" d="M1137 537L809 201H541L874 537L543 881H809L1137 537ZM651 537L322 201H53L389 537L55 881H322L651 537Z"/><glyph unicode="ı" horiz-adv-x="582" d="M449 0H133V1024H449V0Z"/><glyph unicode="Π" horiz-adv-x="1567" d="M1404 0H1081V1152H487V0H164V1434H1404V0Z"/><glyph unicode="Ё" horiz-adv-x="1090" d="M1024 0H164V1434H991V1171H487V852H956V590H487V262H1024V0ZM837 1534Q770 1534 727 1573T684 1671Q684 1732 727 1770T837 1808Q904 1808 947 1770T991 1671Q991 1611 948 1573T837 1534ZM379 1534Q311 1534 268 1573T225 1671Q225 1731 269 1769T379 1808Q447 1808 489 1770T532 1671Q532 1610 490 1572T379 1534Z"/><glyph unicode="Ђ" horiz-adv-x="1545" d="M872 14V250Q935 221 1006 221Q1075 221 1117 271T1159 408Q1159 627 911 627H733V0H410V1169H31V1434H1171V1169H733V864H965Q1200 864 1335 743T1470 410Q1470 210 1364 98T1065 -14Q942 -14 872 14Z"/><glyph unicode="Ѓ" horiz-adv-x="1048" d="M1018 1167H487V0H164V1434H1018V1167ZM924 1890L611 1567H383L643 1890H924Z"/><glyph unicode="Є" horiz-adv-x="1277" d="M1190 51Q1033 -25 780 -25Q447 -25 261 169T74 686Q74 1043 274 1250T815 1458Q1033 1458 1190 1405V1108Q1039 1194 838 1194Q664 1194 557 1102T426 840H979V584H428Q449 420 554 330T834 240Q1033 240 1190 332V51Z"/><glyph unicode="Ѕ" horiz-adv-x="1148" d="M98 55V375Q185 302 287 266T493 229Q554 229 599 240T675 270T721 316T736 374Q736 416 712 449T647 510T548 564T425 617Q257 687 175 788T92 1032Q92 1144 137 1224T259 1357T439 1433T655 1458Q767 1458 853 1445T1013 1403V1104Q977 1129 935 1148T847 1179T758 1198T673 1204Q618 1204 573 1194T497 1164T449 1119T432 1059Q432 1023 451 995T505 941T590 891T703 840Q789 804 857 764T975 672T1050 556T1076 403Q1076 283 1031 202T907 70T726 -3T507 -25Q389 -25 283 -5T98 55Z"/><glyph unicode="І" horiz-adv-x="649" d="M487 0H164V1434H487V0Z"/><glyph unicode="Ї" horiz-adv-x="649" d="M487 0H164V1434H487V0ZM559 1534Q492 1534 449 1573T406 1671Q406 1732 449 1770T559 1808Q626 1808 669 1770T713 1671Q713 1611 670 1573T559 1534ZM101 1534Q33 1534 -10 1573T-53 1671Q-53 1731 -9 1769T101 1808Q169 1808 211 1770T254 1671Q254 1610 212 1572T101 1534Z"/><glyph unicode="Ј" horiz-adv-x="912" d="M762 569Q762 281 629 128T242 -25Q129 -25 33 14V317Q116 254 219 254Q440 254 440 582V1434H762V569Z"/><glyph unicode="Љ" horiz-adv-x="2118" d="M1008 0V1165H721Q689 932 649 716T573 356T503 148T425 50T326 -3T203 -20Q103 -20 23 10V274Q79 246 129 246Q157 246 179 258T225 307T290 504T376 901T459 1434H1331V885H1542Q2060 885 2060 467Q2060 246 1920 123T1526 0H1008ZM1331 641V246H1477Q1720 246 1720 444Q1720 641 1483 641H1331Z"/><glyph unicode="Њ" horiz-adv-x="2142" d="M1034 0V606H487V0H164V1434H487V881H1034V1434H1356V893H1569Q2085 893 2085 471Q2085 247 1946 124T1550 0H1034ZM1356 641V248H1503Q1745 248 1745 449Q1745 641 1509 641H1356Z"/><glyph unicode="Ћ" horiz-adv-x="1637" d="M1542 0H1221V360Q1221 588 979 588H762V0H438V1169H31V1434H1171V1169H762V860H1036Q1284 860 1413 738T1542 385V0Z"/><glyph unicode="Ќ" horiz-adv-x="1329" d="M1356 0H948L530 623Q518 641 492 702H487V0H164V1434H487V756H492Q504 784 532 836L928 1434H1313L813 750L1356 0ZM1047 1890L734 1567H506L766 1890H1047Z"/><glyph unicode="Ў" horiz-adv-x="1259" d="M1268 1434L819 451Q693 175 581 75T297 -25Q183 -25 111 8V303Q193 250 281 250Q402 250 494 446L23 1434H391L629 860Q650 808 662 743H664Q675 797 698 856L928 1434H1268ZM1083 1913Q1065 1754 946 1660T651 1566Q472 1566 353 1660T225 1913H455Q460 1836 518 1787T655 1737Q733 1737 790 1787T853 1913H1083Z"/><glyph unicode="Џ" horiz-adv-x="1566" d="M1405 0H923V-391H639V0H164V1434H487V276H1081V1434H1405V0Z"/><glyph unicode="А" horiz-adv-x="1440" d="M1425 0H1073L971 319H461L360 0H10L532 1434H915L1425 0ZM897 567L743 1049Q726 1103 719 1178H711Q706 1115 686 1053L530 567H897Z"/><glyph unicode="Б" horiz-adv-x="1315" d="M164 0V1434H1087V1169H487V856H764Q994 856 1119 750T1245 455Q1245 239 1112 120T733 0H164ZM487 621V236H676Q903 236 903 434Q903 621 686 621H487Z"/><glyph unicode="В" horiz-adv-x="1313" d="M164 0V1434H686Q926 1434 1055 1346T1184 1098Q1184 982 1106 895T905 774V770Q1058 751 1149 657T1241 428Q1241 231 1100 116T715 0H164ZM487 1196V856H629Q729 856 786 904T844 1038Q844 1196 608 1196H487ZM487 616V238H662Q774 238 837 290T901 432Q901 518 839 567T664 616H487Z"/><glyph unicode="Г" horiz-adv-x="1048" d="M1018 1167H487V0H164V1434H1018V1167Z"/><glyph unicode="Д" horiz-adv-x="1587" d="M1513 -391H1229V0H319V-391H39V264H172Q450 767 479 1434H1309V264H1513V-391ZM985 264V1165H741Q730 966 665 717T504 264H985Z"/><glyph unicode="Е" horiz-adv-x="1090" d="M1024 0H164V1434H991V1171H487V852H956V590H487V262H1024V0Z"/><glyph unicode="Ж" horiz-adv-x="2033" d="M2042 0H1640L1217 618Q1200 642 1178 690H1174V0H858V690H854Q844 667 815 618L391 0H-10L537 748L31 1434H416L815 834Q840 796 854 768H858V1434H1174V768H1178Q1192 797 1217 834L1616 1434H2001L1495 748L2042 0Z"/><glyph unicode="З" horiz-adv-x="1144" d="M72 53V336Q243 221 461 221Q731 221 731 416Q731 614 434 614H250V856H426Q690 856 690 1042Q690 1212 465 1212Q304 1212 121 1110V1374Q305 1458 528 1458Q763 1458 892 1361T1022 1096Q1022 965 949 874T739 750V745Q892 725 978 635T1065 410Q1065 203 915 89T483 -25Q215 -25 72 53Z"/><glyph unicode="И" horiz-adv-x="1619" d="M1454 0H1149V788Q1149 924 1159 1020H1153Q1132 979 1081 901L489 0H164V1434H469V641Q469 494 461 444H465Q470 456 539 561L1108 1434H1454V0Z"/><glyph unicode="Й" horiz-adv-x="1619" d="M1454 0H1149V788Q1149 924 1159 1020H1153Q1132 979 1081 901L489 0H164V1434H469V641Q469 494 461 444H465Q470 456 539 561L1108 1434H1454V0ZM1251 1913Q1233 1754 1114 1660T819 1566Q640 1566 521 1660T393 1913H623Q628 1836 686 1787T823 1737Q901 1737 958 1787T1021 1913H1251Z"/><glyph unicode="К" horiz-adv-x="1329" d="M1356 0H948L530 623Q518 641 492 702H487V0H164V1434H487V756H492Q504 784 532 836L928 1434H1313L813 750L1356 0Z"/><glyph unicode="Л" horiz-adv-x="1495" d="M1331 0H1008V1165H721Q605 341 504 161T197 -20Q110 -20 23 8V266Q81 246 123 246Q164 246 195 272T265 410T356 796T459 1434H1331V0Z"/><glyph unicode="М" horiz-adv-x="1960" d="M1798 0H1479V858Q1479 997 1491 1165H1483Q1458 1033 1438 975L1102 0H838L496 965Q482 1004 451 1165H442Q455 953 455 793V0H164V1434H637L930 584Q965 482 981 379H987Q1014 498 1044 586L1337 1434H1798V0Z"/><glyph unicode="Н" horiz-adv-x="1569" d="M1405 0H1081V584H487V0H164V1434H487V862H1081V1434H1405V0Z"/><glyph unicode="О" horiz-adv-x="1553" d="M770 -25Q462 -25 268 175T74 698Q74 1038 271 1248T793 1458Q1100 1458 1289 1257T1479 727Q1479 389 1283 182T770 -25ZM784 1180Q614 1180 514 1053T414 715Q414 502 514 378T776 254Q943 254 1041 374T1139 709Q1139 932 1044 1056T784 1180Z"/><glyph unicode="П" horiz-adv-x="1567" d="M1404 0H1081V1152H487V0H164V1434H1404V0Z"/><glyph unicode="Р" horiz-adv-x="1258" d="M487 494V0H164V1434H670Q1212 1434 1212 977Q1212 761 1057 628T641 494H487ZM487 1186V739H614Q872 739 872 965Q872 1186 614 1186H487Z"/><glyph unicode="С" horiz-adv-x="1278" d="M1192 51Q1035 -25 782 -25Q452 -25 263 169T74 686Q74 1030 286 1244T838 1458Q1048 1458 1192 1405V1094Q1048 1180 864 1180Q662 1180 538 1053T414 709Q414 501 531 378T846 254Q1035 254 1192 346V51Z"/><glyph unicode="Т" horiz-adv-x="1200" d="M1171 1171H762V0H438V1171H31V1434H1171V1171Z"/><glyph unicode="У" horiz-adv-x="1259" d="M1268 1434L819 451Q693 175 581 75T297 -25Q183 -25 111 8V303Q193 250 281 250Q402 250 494 446L23 1434H391L629 860Q650 808 662 743H664Q675 797 698 856L928 1434H1268Z"/><glyph unicode="Ф" horiz-adv-x="1718" d="M1016 156V-8H702V156H668Q393 156 232 318T70 739Q70 991 228 1144T664 1298H702V1462H1016V1298H1053Q1332 1298 1490 1145T1649 739Q1649 481 1487 319T1049 156H1016ZM1016 1057V401H1030Q1164 401 1240 491T1317 731Q1317 880 1241 968T1032 1057H1016ZM702 401V1057H684Q554 1057 478 968T401 731Q401 581 476 491T686 401H702Z"/><glyph unicode="Х" horiz-adv-x="1342" d="M1335 0H952L705 467Q691 493 676 563H672Q665 530 639 463L391 0H6L463 717L45 1434H438L643 1004Q667 953 686 883H690Q702 925 735 1008L963 1434H1323L893 723L1335 0Z"/><glyph unicode="Ц" horiz-adv-x="1682" d="M1610 -391H1326V0H164V1434H487V276H1081V1434H1405V276H1610V-391Z"/><glyph unicode="Ч" horiz-adv-x="1487" d="M1315 0H991V569Q790 459 584 459Q139 459 139 887V1434H461V915Q461 729 666 729Q828 729 991 827V1434H1315V0Z"/><glyph unicode="Ш" horiz-adv-x="2071" d="M1907 0H164V1434H487V276H874V1434H1196V276H1583V1434H1907V0Z"/><glyph unicode="Щ" horiz-adv-x="2184" d="M2111 -391H1847V0H164V1434H487V276H874V1434H1196V276H1583V1434H1907V276H2111V-391Z"/><glyph unicode="Ъ" horiz-adv-x="1551" d="M438 0V1169H31V1434H762V897H973Q1491 897 1491 475Q1491 250 1351 125T956 0H438ZM762 653V246H907Q1151 246 1151 453Q1151 653 913 653H762Z"/><glyph unicode="Ы" horiz-adv-x="1840" d="M1675 0H1354V1434H1675V0ZM164 0V1434H487V897H698Q1217 897 1217 475Q1217 250 1077 125T682 0H164ZM487 653V246H633Q877 246 877 453Q877 653 639 653H487Z"/><glyph unicode="Ь" horiz-adv-x="1276" d="M164 0V1434H487V897H698Q1217 897 1217 475Q1217 250 1077 125T682 0H164ZM487 653V246H633Q877 246 877 453Q877 653 639 653H487Z"/><glyph unicode="Э" horiz-adv-x="1277" d="M88 51V332Q245 240 442 240Q803 240 850 584H297V840H852Q790 1194 444 1194Q247 1194 88 1110V1401Q255 1458 477 1458Q818 1458 1010 1262T1202 713Q1202 380 1011 178T489 -25Q246 -25 88 51Z"/><glyph unicode="Ю" horiz-adv-x="2179" d="M764 594H487V0H164V1434H487V864H770Q815 1139 995 1298T1444 1458Q1742 1458 1923 1258T2105 727Q2105 385 1917 180T1421 -25Q1155 -25 976 143T764 594ZM1440 1180Q1277 1180 1188 1058T1098 719Q1098 493 1183 374T1427 254Q1586 254 1674 372T1763 709Q1763 934 1679 1057T1440 1180Z"/><glyph unicode="Я" horiz-adv-x="1311" d="M1147 0H823V557H737Q617 557 541 375L385 0H12L213 428Q298 609 436 653V657Q119 732 119 1024Q119 1217 259 1325T653 1434H1147V0ZM823 799V1188H688Q461 1188 461 999Q461 909 522 854T688 799H823Z"/><glyph unicode="а" horiz-adv-x="1102" d="M985 0H686V147H682Q579 -25 377 -25Q228 -25 143 59T57 285Q57 583 410 629L688 666Q688 834 506 834Q323 834 158 725V963Q224 997 338 1023T547 1049Q985 1049 985 612V0ZM688 416V485L502 461Q348 441 348 322Q348 268 385 234T487 199Q576 199 632 260T688 416Z"/><glyph unicode="б" horiz-adv-x="1247" d="M1040 1540V1290Q992 1253 912 1241Q687 1206 643 1196Q552 1175 511 1139T443 1034T406 866H410Q524 997 715 997Q933 997 1054 868T1176 510Q1176 266 1027 121T623 -25Q356 -25 217 145T78 637Q78 791 101 915T170 1135T283 1295T421 1388T560 1432T901 1489Q991 1512 1040 1540ZM401 645Q399 621 399 551Q399 398 460 308T631 217Q730 217 792 293T854 496Q854 625 792 697T623 770Q554 770 493 734T401 645Z"/><glyph unicode="в" horiz-adv-x="1187" d="M133 0V1024H705Q1071 1024 1071 774Q1071 685 1014 624T864 543Q977 529 1041 465T1106 307Q1106 168 1007 84T735 0H133ZM449 831V616H604Q748 616 748 729Q748 831 612 831H449ZM449 430V197H631Q782 197 782 319Q782 430 627 430H449Z"/><glyph unicode="г" horiz-adv-x="840" d="M801 784H449V0H133V1024H801V784Z"/><glyph unicode="д" horiz-adv-x="1269" d="M1219 -373H961V0H272V-373H18V223H109Q326 563 338 1024H1057V223H1219V-373ZM741 223V803H584Q561 479 416 223H741Z"/><glyph unicode="е" horiz-adv-x="1108" d="M1053 422H385Q401 199 666 199Q835 199 963 279V51Q821 -25 594 -25Q346 -25 209 112T72 496Q72 751 220 900T584 1049Q808 1049 930 916T1053 555V422ZM760 616Q760 836 582 836Q506 836 451 773T383 616H760Z"/><glyph unicode="ж" horiz-adv-x="1736" d="M1731 0H1358L1028 512H1024V0H713V512H709L381 0H8L397 537L18 1024H389L709 539H713V1024H1024V539H1028L1348 1024H1718L1339 537L1731 0Z"/><glyph unicode="з" horiz-adv-x="984" d="M80 27V256Q228 188 375 188Q588 188 588 305Q588 426 356 426H213V621H358Q557 621 557 737Q557 840 379 840Q245 840 111 780V997Q291 1049 436 1049Q883 1049 883 772Q883 580 645 535V530Q771 519 842 454T913 289Q913 -20 412 -20Q221 -20 80 27Z"/><glyph unicode="и" horiz-adv-x="1285" d="M1151 0H864V670Q825 591 780 524L432 0H133V1024H422V375Q454 442 492 500L840 1024H1151V0Z"/><glyph unicode="й" horiz-adv-x="1285" d="M1151 0H864V670Q825 591 780 524L432 0H133V1024H422V375Q454 442 492 500L840 1024H1151V0ZM1077 1513Q1059 1354 940 1260T645 1166Q466 1166 347 1260T219 1513H449Q454 1436 512 1387T649 1337Q727 1337 784 1387T847 1513H1077Z"/><glyph unicode="к" horiz-adv-x="1145" d="M1155 0H776L453 500H449V0H133V1024H449V543H453L768 1024H1143L766 537L1155 0Z"/><glyph unicode="л" horiz-adv-x="1235" d="M1102 0H784V801H610Q555 336 446 162T139 -12Q71 -12 16 8V223Q51 207 90 207Q184 207 246 382T358 1024H1102V0Z"/><glyph unicode="м" horiz-adv-x="1591" d="M1458 0H1163V797Q1153 741 1110 608L911 0H633L434 608Q385 758 381 795V0H133V1024H549L743 440Q788 305 793 258Q800 303 844 438L1036 1024H1458V0Z"/><glyph unicode="н" horiz-adv-x="1253" d="M1120 0H803V428H449V0H133V1024H449V645H803V1024H1120V0Z"/><glyph unicode="о" horiz-adv-x="1252" d="M621 -25Q365 -25 219 118T72 508Q72 762 224 905T635 1049Q890 1049 1035 906T1180 526Q1180 271 1031 123T621 -25ZM629 807Q517 807 455 730T393 512Q393 217 631 217Q858 217 858 520Q858 807 629 807Z"/><glyph unicode="п" horiz-adv-x="1253" d="M1120 0H803V801H449V0H133V1024H1120V0Z"/><glyph unicode="р" horiz-adv-x="1270" d="M453 119H449V-471H133V1024H449V870H453Q570 1049 782 1049Q981 1049 1089 913T1198 541Q1198 285 1072 130T735 -25Q550 -25 453 119ZM444 539V457Q444 351 500 284T647 217Q755 217 814 300T874 537Q874 807 664 807Q567 807 506 734T444 539Z"/><glyph unicode="с" horiz-adv-x="983" d="M909 37Q802 -25 600 -25Q364 -25 218 118T72 487Q72 748 228 898T647 1049Q828 1049 909 1001V733Q810 807 688 807Q552 807 473 728T393 508Q393 372 469 295T678 217Q796 217 909 291V37Z"/><glyph unicode="т" horiz-adv-x="931" d="M899 784H625V0H307V784H31V1024H899V784Z"/><glyph unicode="у" horiz-adv-x="1102" d="M1108 1024L692 -82Q542 -481 240 -481Q125 -481 51 -455V-203Q114 -240 188 -240Q310 -240 358 -125L412 2L-4 1024H346L537 401Q555 343 565 264H569Q578 322 602 399L795 1024H1108Z"/><glyph unicode="ф" horiz-adv-x="1606" d="M950 -12V-475H655V-12H606Q356 -12 212 130T68 508Q68 751 211 893T608 1036H655V1466H950V1036H995Q1250 1036 1394 894T1538 508Q1538 271 1394 130T999 -12H950ZM950 813V211H963Q1082 211 1149 291T1217 508Q1217 651 1151 732T967 813H950ZM655 211V813H639Q522 813 456 732T389 508Q389 372 456 292T643 211H655Z"/><glyph unicode="х" horiz-adv-x="1131" d="M1122 1024L784 528L1120 0H756L608 276Q590 309 565 369H561Q546 327 520 279L371 0H8L354 510L29 1024H395L541 737Q570 680 582 641H586Q602 688 629 739L778 1024H1122Z"/><glyph unicode="ц" horiz-adv-x="1334" d="M1284 -373H1027V0H133V1024H449V223H803V1024H1120V223H1284V-373Z"/><glyph unicode="ч" horiz-adv-x="1230" d="M1096 0H780V354Q619 264 469 264Q121 264 121 616V1024H424V666Q424 508 565 508Q665 508 780 569V1024H1096V0Z"/><glyph unicode="ш" horiz-adv-x="1765" d="M1632 0H133V1024H449V223H723V1024H1040V223H1315V1024H1632V0Z"/><glyph unicode="щ" horiz-adv-x="1846" d="M1796 -373H1539V0H133V1024H449V223H723V1024H1040V223H1315V1024H1632V223H1796V-373Z"/><glyph unicode="ъ" horiz-adv-x="1328" d="M315 0V784H27V1024H633V666H901Q1076 666 1173 582T1270 344Q1270 188 1174 94T907 0H315ZM633 467V201H786Q946 201 946 338Q946 467 791 467H633Z"/><glyph unicode="ы" horiz-adv-x="1669" d="M1536 0H1219V1024H1536V0ZM133 0V1024H449V666H719Q893 666 990 582T1087 344Q1087 187 991 94T725 0H133ZM449 467V201H602Q762 201 762 338Q762 467 606 467H449Z"/><glyph unicode="ь" horiz-adv-x="1145" d="M133 0V1024H449V666H719Q893 666 990 582T1087 344Q1087 187 991 94T725 0H133ZM449 467V201H602Q762 201 762 338Q762 467 606 467H449Z"/><glyph unicode="э" horiz-adv-x="981" d="M76 43V268Q185 195 322 195Q560 195 592 414H211V600H594Q563 827 315 827Q182 827 84 758V993Q206 1049 362 1049Q629 1049 769 910T909 506Q909 270 765 123T375 -25Q210 -25 76 43Z"/><glyph unicode="ю" horiz-adv-x="1810" d="M659 418H449V0H133V1024H449V643H668Q706 836 847 942T1202 1049Q1455 1049 1596 907T1737 526Q1737 269 1592 122T1188 -25Q960 -25 823 90T659 418ZM1194 807Q977 807 977 516Q977 217 1198 217Q1415 217 1415 520Q1415 807 1194 807Z"/><glyph unicode="я" horiz-adv-x="1164" d="M1032 0H719V383H647Q564 383 496 236L387 0H35L184 291Q252 423 375 459Q119 503 119 725Q119 1024 557 1024H1032V0ZM719 571V823H600Q436 823 436 698Q436 571 600 571H719Z"/><glyph unicode="ё" horiz-adv-x="1108" d="M1053 422H385Q401 199 666 199Q835 199 963 279V51Q821 -25 594 -25Q346 -25 209 112T72 496Q72 751 220 900T584 1049Q808 1049 930 916T1053 555V422ZM760 616Q760 836 582 836Q506 836 451 773T383 616H760ZM825 1186Q758 1186 715 1225T672 1323Q672 1384 715 1422T825 1460Q892 1460 935 1422T979 1323Q979 1263 936 1225T825 1186ZM367 1186Q299 1186 256 1225T213 1323Q213 1383 257 1421T367 1460Q435 1460 477 1422T520 1323Q520 1262 478 1224T367 1186Z"/><glyph unicode="ђ" horiz-adv-x="1267" d="M535 -420V-176Q591 -213 645 -213Q758 -213 806 -91T854 354Q854 778 674 778Q597 778 541 716T485 559V0H170V1179H27V1338H170V1516H485V1338H815V1179H485V850H489Q594 1026 795 1026Q1171 1026 1171 362Q1171 -91 1051 -270T666 -449Q600 -449 535 -420Z"/><glyph unicode="ѓ" horiz-adv-x="840" d="M801 784H449V0H133V1024H801V784ZM790 1509L477 1186H249L509 1509H790Z"/><glyph unicode="є" horiz-adv-x="983" d="M903 43Q770 -25 602 -25Q360 -25 216 117T72 494Q72 758 222 903T635 1049Q782 1049 897 999V758Q804 827 666 827Q422 827 387 600H770V414H389Q421 195 657 195Q791 195 903 270V43Z"/><glyph unicode="ѕ" horiz-adv-x="901" d="M66 27V283Q144 236 221 213T368 190Q452 190 500 213T549 283Q549 313 527 333T471 368T395 395T316 422Q255 445 209 471T131 533T83 614T66 723Q66 809 103 871T203 972T346 1030T514 1049Q582 1049 652 1039T790 1008V764Q730 799 662 816T527 834Q496 834 469 829T420 813T387 786T375 748Q375 720 393 700T440 666T504 640T575 616Q638 594 689 568T776 507T832 425T852 313Q852 222 813 158T708 53T557 -6T379 -25Q210 -25 66 27Z"/><glyph unicode="і" horiz-adv-x="582" d="M293 1186Q213 1186 162 1233T111 1350Q111 1421 162 1466T293 1511Q374 1511 424 1466T475 1350Q475 1278 425 1232T293 1186ZM449 0H133V1024H449V0Z"/><glyph unicode="ї" horiz-adv-x="582" d="M449 0H133V1024H449V0ZM528 1186Q461 1186 418 1225T375 1323Q375 1384 418 1422T528 1460Q595 1460 638 1422T682 1323Q682 1263 639 1225T528 1186ZM70 1186Q2 1186 -41 1225T-84 1323Q-84 1383 -40 1421T70 1460Q138 1460 180 1422T223 1323Q223 1262 181 1224T70 1186Z"/><glyph unicode="ј" horiz-adv-x="582" d="M293 1186Q213 1186 162 1233T111 1350Q111 1421 162 1466T293 1511Q374 1511 424 1466T475 1350Q475 1278 425 1232T293 1186ZM449 18Q449 -209 338 -345T18 -481Q-51 -481 -133 -451V-203Q-67 -240 -16 -240Q133 -240 133 -6V1024H449V18Z"/><glyph unicode="љ" horiz-adv-x="1799" d="M784 0V801H610Q555 336 446 162T139 -12Q71 -12 16 8V223Q51 207 90 207Q184 207 246 382T358 1024H1102V653H1368Q1542 653 1640 571T1739 338Q1739 183 1643 92T1376 0H784ZM1102 449V205H1253Q1415 205 1415 332Q1415 449 1253 449H1102Z"/><glyph unicode="њ" horiz-adv-x="1766" d="M752 0V438H449V0H133V1024H449V657H752V1024H1069V657H1337Q1514 657 1610 575T1706 342Q1706 186 1610 93T1343 0H752ZM1069 457V203H1223Q1382 203 1382 336Q1382 457 1227 457H1069Z"/><glyph unicode="ћ" horiz-adv-x="1262" d="M1149 0H838V553Q838 778 674 778Q586 778 536 717T485 559V0H170V1179H27V1338H170V1516H485V1338H815V1179H485V850H489Q605 1026 805 1026Q1149 1026 1149 606V0Z"/><glyph unicode="ќ" horiz-adv-x="1145" d="M1155 0H776L453 500H449V0H133V1024H449V543H453L768 1024H1143L766 537L1155 0ZM949 1509L636 1186H408L668 1509H949Z"/><glyph unicode="ў" horiz-adv-x="1102" d="M1108 1024L692 -82Q542 -481 240 -481Q125 -481 51 -455V-203Q114 -240 188 -240Q310 -240 358 -125L412 2L-4 1024H346L537 401Q555 343 565 264H569Q578 322 602 399L795 1024H1108ZM997 1513Q979 1354 860 1260T565 1166Q386 1166 267 1260T139 1513H369Q374 1436 432 1387T569 1337Q647 1337 704 1387T767 1513H997Z"/><glyph unicode="џ" horiz-adv-x="1253" d="M1120 0H758V-374H500V0H133V1024H449V223H803V1024H1120V0Z"/><glyph unicode="Ґ" horiz-adv-x="1057" d="M1018 1169H487V0H164V1434H744V1686H1018V1169Z"/><glyph unicode="ґ" horiz-adv-x="890" d="M834 788H449V0H133V1024H582V1274H834V788Z"/><glyph unicode="‐" horiz-adv-x="828" d="M690 436H143V657H690V436Z"/><glyph unicode="–" horiz-adv-x="1024" d="M1024 436H0V657H1024V436Z"/><glyph unicode="—" horiz-adv-x="2048" d="M2048 436H0V657H2048V436Z"/><glyph unicode="‘" horiz-adv-x="594" d="M481 1468L371 1024H96L285 1468H481Z"/><glyph unicode="’" horiz-adv-x="594" d="M500 1468L307 1024H113L227 1468H500Z"/><glyph unicode="‚" horiz-adv-x="594" d="M477 219L285 -225H90L205 219H477Z"/><glyph unicode="“" horiz-adv-x="1010" d="M897 1468L784 1024H512L702 1468H897ZM481 1468L371 1024H96L285 1468H481Z"/><glyph unicode="”" horiz-adv-x="1010" d="M915 1468L725 1024H528L641 1468H915ZM500 1468L307 1024H113L227 1468H500Z"/><glyph unicode="„" horiz-adv-x="1010" d="M893 219L700 -225H506L618 219H893ZM477 219L285 -225H90L205 219H477Z"/><glyph unicode="†" horiz-adv-x="832" d="M798 868L525 898L480 202H351L306 898L33 868V1094L326 1064L296 1434H535L505 1064L798 1094V868Z"/><glyph unicode="‡" horiz-adv-x="832" d="M798 482L500 512L535 202H296L331 512L33 482V708L301 678L334 818L301 958L33 928V1154L331 1124L296 1434H535L500 1124L798 1154V928L530 958L497 818L530 678L798 708V482Z"/><glyph unicode="•" horiz-adv-x="865" d="M434 281Q321 281 241 362T160 557Q160 671 240 751T434 831Q548 831 629 751T711 557Q711 444 630 363T434 281Z"/><glyph unicode="…" horiz-adv-x="1868" d="M1554 -23Q1476 -23 1424 25T1372 143Q1372 215 1424 261T1556 307Q1637 307 1689 261T1741 143Q1741 70 1690 24T1554 -23ZM932 -23Q854 -23 803 25T752 143Q752 215 803 261T934 307Q1015 307 1066 261T1118 143Q1118 70 1067 24T932 -23ZM309 -23Q231 -23 180 25T129 143Q129 215 180 261T311 307Q392 307 444 261T496 143Q496 70 445 24T309 -23Z"/><glyph unicode="‰" horiz-adv-x="2573" d="M430 707Q277 707 184 804T90 1065Q90 1244 189 1349T455 1454Q614 1454 703 1359T793 1092Q793 915 694 811T430 707ZM449 1278Q303 1278 303 1075Q303 883 442 883Q584 883 584 1083Q584 1278 449 1278ZM1477 1434L543 0H299L1233 1434H1477ZM2118 -20Q1965 -20 1872 77T1778 338Q1778 517 1877 622T2142 727Q2303 727 2392 633T2482 367Q2482 190 2383 85T2118 -20ZM2136 551Q1991 551 1991 348Q1991 156 2130 156Q2273 156 2273 356Q2273 449 2235 500T2136 551ZM1323 -20Q1170 -20 1077 77T983 338Q983 517 1082 622T1348 727Q1508 727 1597 633T1686 367Q1686 190 1587 85T1323 -20ZM1339 551Q1194 551 1194 348Q1194 156 1335 156Q1477 156 1477 356Q1477 449 1439 500T1339 551Z"/><glyph unicode="‹" horiz-adv-x="705" d="M651 201H383L53 537L383 881H651L317 537L651 201Z"/><glyph unicode="›" horiz-adv-x="705" d="M651 537L322 201H53L387 537L55 881H322L651 537Z"/><glyph unicode="€" horiz-adv-x="1178" d="M1094 45Q976 -27 786 -27Q561 -27 419 97T231 453H109V643H205Q203 668 203 702Q203 720 207 784H109V971H236Q291 1202 444 1330T825 1458Q992 1458 1094 1403V1143Q982 1231 840 1231Q730 1231 647 1160T528 971H954V784H498Q494 725 494 702Q494 675 496 643H954V453H526Q601 201 825 201Q966 201 1094 291V45Z"/><glyph unicode="№" horiz-adv-x="2464" d="M1937 606Q1738 606 1629 718T1520 1030Q1520 1233 1632 1344T1948 1456Q2145 1456 2254 1345T2363 1044Q2363 839 2251 723T1937 606ZM1944 1247Q1786 1247 1786 1032Q1786 817 1944 817Q2095 817 2095 1038Q2095 1247 1944 1247ZM1372 0H1047L530 883Q509 918 465 1006H461Q469 930 469 774V0H164V1434H512L1004 580Q1040 518 1071 459H1075Q1067 509 1067 655V1434H1372V0ZM2333 236H1542V461H2333V236Z"/><glyph unicode="™" horiz-adv-x="1579" d="M1395 772H1245V1217H1241L1081 772H946L801 1217H795V772H647V1434H864L1020 981H1024L1192 1434H1395V772ZM582 1311H403V772H248V1311H76V1434H582V1311Z"/><glyph unicode="﴾" horiz-adv-x="756" d="M739 -326H481Q158 30 158 549Q158 1050 481 1434H737Q434 1032 434 549Q434 66 739 -326Z"/><glyph unicode="﴿" horiz-adv-x="756" d="M274 -326H18Q324 64 324 549Q324 1030 18 1434H276Q600 1049 600 549Q600 34 274 -326Z"/></font>
</defs>
</svg>
