<svg xmlns="http://www.w3.org/2000/svg" xmlns:xlink="http://www.w3.org/1999/xlink" version="1.1" id="Layer_1" x="0px" y="0px" width="100px" height="100px" viewBox="0 0 100 100" enable-background="new 0 0 100 100" xml:space="preserve">
<g>
</g>
<path d="M80.494,78.917l0.011-0.008l-0.015-0.021c0-0.007,0-0.011,0-0.015l-1.376-2.52l-0.018,0.01l-4.484-8.132  c-2.451,4.689-14.514,7.199-25.942,7.199c-11.428,0-23.491-2.51-25.942-7.199l-4.48,8.122l-0.015-0.008l-1.362,2.475l-0.021,0.061  c0,0.003,0,0.003,0,0.007l-0.015,0.021l0.011,0.008c-0.021,0.151-0.031,0.292-0.031,0.429c0,5.559,14.291,11.486,31.855,11.486  c17.563,0,31.854-5.928,31.854-11.486C80.525,79.212,80.512,79.068,80.494,78.917z"/>
<path d="M57.251,58.003V61.9h-0.018c-0.287,1.814-3.943,3.202-8.564,3.202c-4.618,0-8.276-1.388-8.56-3.202h-0.011l-0.002-0.104  c-0.004-0.041-0.006-0.084-0.006-0.126c0-0.017,0-0.033,0.001-0.05l-0.001-0.062v-3.556c-9.773,1.099-16.763,4.021-16.763,7.453  c0,4.374,11.346,7.919,25.342,7.919c13.998,0,25.343-3.545,25.343-7.919C74.013,62.023,67.024,59.102,57.251,58.003z"/>
<path d="M48.669,53.702c-4.649,0-7.892,1.447-7.892,2.746c0,1.298,3.242,2.745,7.892,2.745c4.652,0,7.895-1.447,7.895-2.745  C56.563,55.149,53.321,53.702,48.669,53.702z"/>
<path d="M22.2,65.445c0.003-1.289,0.673-2.445,1.85-3.466l-6.147-1.229l14.896-4.964l-4.965-19.861l14.896,9.93l4.965-19.86  l4.966,19.86L72.52,30.959L62.59,50.82h19.86l-15.896,7.948c2.098,0.633,3.911,1.396,5.317,2.279L91,47.98l-21.333-0.475  l15.174-29.879L54.559,36.354L47.387,7.666l-7.171,28.688L18.7,22.01l8.292,30.803L7.957,61.23L22.2,65.445z"/>
<path d="M40.562,58.003v3.778c0,0,1.375,2.75,8.109,2.75s8.078-2.75,8.078-2.75v-3.778c0,0-0.347,2.778-8.08,2.778  S40.562,58.003,40.562,58.003z"/>
</svg>